<svg preserveAspectRatio="none" width="100%" height="100%" overflow="visible" style="display: block;" viewBox="0 0 156.923 60.0001" fill="none" xmlns="http://www.w3.org/2000/svg">
<g id="Group 2">
<path id="Vector" d="M79.8679 15.4161C82.2297 17.403 83.2721 20.5096 83.4998 23.4179C83.5598 24.4256 83.5295 25.4401 83.5143 26.4488C82.1942 26.5229 80.8735 26.5399 79.5513 26.555C79.3011 26.5578 79.051 26.5608 78.8009 26.5638C78.2038 26.5711 77.6074 26.5781 77.011 26.5849C76.4774 26.591 75.9439 26.5973 75.4104 26.604C71.7547 26.6494 68.1004 26.67 64.4439 26.6603C64.4648 26.9585 64.4865 27.2566 64.5082 27.5547C64.514 27.6378 64.5198 27.7209 64.5255 27.8065C64.6788 29.8548 65.2694 31.9425 66.7536 33.4982C66.8005 33.5479 66.8483 33.5976 66.8967 33.6488C67.7917 34.5397 68.996 35.134 70.2546 35.4016C70.3479 35.4218 70.4411 35.4419 70.538 35.4627C72.6055 35.8824 74.9333 35.7516 76.81 34.7671C76.9069 34.7046 77.0016 34.6406 77.0963 34.5752C77.3312 34.4147 77.3312 34.4147 77.4809 34.4147C77.5054 34.3448 77.53 34.2751 77.5553 34.2031C77.6406 34.1199 77.7259 34.0371 77.8141 33.9564C78.9404 32.9047 79.3633 31.6195 79.6409 30.185C81.0838 30.3821 82.5246 30.5843 83.9618 30.8195C83.9234 32.6631 83.0863 34.5877 81.801 35.9655C81.7482 36.0239 81.6954 36.0824 81.6412 36.1426C79.7855 38.1545 77.0818 39.1882 74.2993 39.4071C73.8063 39.4324 73.3133 39.4328 72.8202 39.4328C72.6308 39.4329 72.4422 39.4342 72.2527 39.4356C69.2512 39.4456 66.3234 38.6517 63.9971 36.8114C63.9356 36.7629 63.9356 36.7629 63.8728 36.7135C61.3389 34.6807 60.118 31.5605 59.8252 28.4932C59.8172 28.4073 59.8085 28.3214 59.8006 28.2329C59.6018 25.7526 59.7876 23.1733 60.645 20.8093C60.6616 20.7628 60.6782 20.7163 60.6948 20.6684C60.9616 19.9315 61.3014 19.2403 61.6874 18.5535C61.7113 18.5108 61.7351 18.4681 61.759 18.4241C62.1349 17.7484 62.5831 17.1605 63.1029 16.5796C63.1368 16.5424 63.1701 16.5051 63.2041 16.4667C65.1321 14.3385 67.8582 13.1882 70.7802 12.9281C74.1164 12.7129 77.2915 13.2999 79.8679 15.4161ZM70.1057 17.0026C69.9908 17.032 69.9908 17.032 69.8736 17.0621C69.0148 17.3065 68.2529 17.7218 67.5726 18.2715C67.5141 18.3161 67.4555 18.3606 67.3948 18.4064C65.8239 19.6526 65.0858 21.5724 64.6672 23.4176C64.6672 23.4641 64.6672 23.5106 64.6672 23.5586C65.2911 23.5633 65.915 23.5659 66.5389 23.5674C66.6148 23.5676 66.6148 23.5676 66.6921 23.5677C69.3228 23.5732 71.9535 23.5291 74.5849 23.4881C74.6384 23.4872 74.6926 23.4864 74.7482 23.4855C76.1558 23.4636 77.5633 23.4409 78.9708 23.4176C78.9484 23.218 78.9267 23.0185 78.9035 22.819C78.8978 22.7632 78.892 22.7075 78.8855 22.6501C78.6838 20.8801 77.8582 19.1485 76.4052 17.9854C74.6362 16.751 72.2065 16.4346 70.1057 17.0026Z" fill="var(--fill-0, white)"/>
<path id="Vector_2" d="M145.312 12.901C145.369 12.901 145.425 12.9011 145.483 12.9011C146.314 12.9033 147.133 12.9114 147.952 13.0551C148.012 13.0654 148.072 13.0756 148.133 13.0862C150.431 13.4994 152.508 14.5636 153.849 16.4157C155.092 18.1929 155.631 20.4043 155.638 22.5208C155.638 22.5825 155.639 22.6441 155.64 22.7076C155.641 22.841 155.642 22.9744 155.643 23.1078C155.644 23.3232 155.646 23.5385 155.647 23.7538C155.649 24.0635 155.652 24.3731 155.654 24.6828C155.672 27.1062 155.698 29.5293 155.765 31.9519C155.766 32.0063 155.768 32.0606 155.769 32.1165C155.804 33.3366 155.849 34.556 155.908 35.7751C155.91 35.8228 155.913 35.8703 155.915 35.9193C155.962 36.8749 156.018 37.8301 156.072 38.7855C154.598 38.7855 153.122 38.7855 151.602 38.7855C151.602 36.3428 151.602 33.9002 151.602 31.3836C151.455 31.4068 151.308 31.4301 151.156 31.4541C151.128 31.5421 151.099 31.6302 151.07 31.7209C150.104 34.6515 148.323 37.0878 145.431 38.5667C143.259 39.6214 140.34 39.7431 138.023 39.0899C137.673 38.9831 137.338 38.8552 137.002 38.715C136.88 38.6648 136.88 38.6648 136.756 38.6136C136.23 38.3811 135.794 38.0947 135.363 37.7281C135.295 37.6707 135.228 37.6134 135.158 37.5543C133.703 36.2521 133.191 34.5491 133.119 32.6941C133.086 30.8593 133.493 29.095 134.842 27.7179C134.892 27.6639 134.944 27.61 134.996 27.5543C137.57 24.9653 141.931 24.563 145.435 24.0587C148.158 23.841 148.158 23.841 150.49 22.7305C151.01 21.9046 150.938 20.9687 150.706 20.061C150.513 19.4225 150.261 18.9263 149.797 18.4237C149.666 18.2717 149.666 18.2717 149.592 18.1197C149.494 17.9502 149.404 17.9263 149.219 17.8487C149.074 17.7594 148.93 17.6697 148.786 17.58C147.168 16.6145 145.095 16.6153 143.28 16.9896C141.694 17.3565 140.189 18.1676 139.313 19.5025C138.803 20.3289 138.568 21.2102 138.417 22.1489C138.153 22.232 138.053 22.2017 137.787 22.139C137.703 22.1197 137.62 22.1004 137.534 22.0805C137.399 22.0482 137.399 22.0482 137.262 22.0153C137.124 21.9828 137.124 21.9828 136.983 21.9496C136.788 21.9037 136.593 21.8574 136.399 21.8108C136.149 21.7509 135.899 21.6921 135.649 21.6337C135.41 21.5779 135.172 21.5212 134.934 21.4646C134.798 21.433 134.798 21.433 134.661 21.4007C134.578 21.3807 134.495 21.3608 134.41 21.3402C134.336 21.3227 134.263 21.3053 134.188 21.2873C134.022 21.2324 134.022 21.2324 133.948 21.0915C133.982 20.8847 134.022 20.6833 134.068 20.479C134.083 20.4187 134.096 20.3583 134.11 20.2961C134.674 17.9123 136.149 15.8126 138.335 14.4839C140.444 13.281 142.883 12.8973 145.312 12.901ZM150.392 25.9687C148.857 26.4655 147.23 26.6676 145.635 26.9107C144.646 27.062 143.663 27.2213 142.688 27.4406C142.615 27.457 142.541 27.4735 142.465 27.4904C140.959 27.8421 139.323 28.4685 138.454 29.7578C137.84 30.8322 137.744 32.0256 138.047 33.2013C138.311 34.0335 138.865 34.7124 139.651 35.1685C141.153 35.9316 142.769 35.8922 144.379 35.4857C146.767 34.8023 148.644 33.0764 149.827 31.0418C150.106 30.542 150.337 30.0272 150.546 29.4979C150.567 29.4454 150.587 29.393 150.608 29.339C150.671 29.1756 150.728 29.0114 150.783 28.8458C150.804 28.7835 150.825 28.7212 150.847 28.6571C151.03 28.0546 151.033 27.4742 151.021 26.8543C151.02 26.7529 151.018 26.6515 151.018 26.55C151.015 26.3049 151.011 26.0598 151.007 25.8145C150.783 25.8145 150.602 25.8977 150.392 25.9687Z" fill="var(--fill-0, white)"/>
<path id="Vector_3" d="M103.829 14.3908C103.886 14.4384 103.942 14.4861 104.001 14.5353C104.093 14.6079 104.093 14.6079 104.187 14.6821C105.35 15.6174 106.093 16.9315 106.607 18.2715C106.637 18.3477 106.637 18.3477 106.667 18.4255C107.714 21.1882 107.685 24.1439 107.673 27.0379C107.672 27.4525 107.672 27.8672 107.672 28.2817C107.671 29.0628 107.669 29.844 107.667 30.6251C107.664 31.5161 107.663 32.407 107.661 33.298C107.659 35.1271 107.656 36.9562 107.651 38.7852C106.078 38.7852 104.504 38.7852 102.883 38.7852C102.882 38.3563 102.88 37.9274 102.879 37.4855C102.874 36.0637 102.868 34.642 102.861 33.2202C102.858 32.3588 102.854 31.4973 102.851 30.6358C102.849 29.8842 102.846 29.1326 102.843 28.381C102.84 27.9838 102.839 27.5864 102.838 27.1892C102.946 22.2889 102.946 22.2889 100.659 18.0627C99.747 17.2453 98.5166 16.9882 97.2956 17.0026C95.432 17.0786 94.0158 17.7334 92.7167 18.9921C92.4449 19.2746 92.2194 19.5684 92.0068 19.8929C91.9598 19.9643 91.9121 20.0357 91.8637 20.1093C89.8005 23.3711 89.6219 27.338 89.6002 31.0376C89.5988 31.3108 89.5966 31.584 89.5945 31.8573C89.5909 32.3725 89.588 32.8878 89.5843 33.403C89.58 34.1007 89.5749 34.7986 89.5699 35.4963C89.5626 36.5926 89.5554 37.6889 89.5482 38.7852C87.9751 38.7852 86.4021 38.7852 84.7806 38.7852C84.7806 30.4571 84.7806 22.1289 84.7806 13.5484C86.2315 13.5484 87.6816 13.5484 89.1759 13.5484C89.1325 14.2841 89.0891 15.02 89.0458 15.7557C89.0422 15.8111 89.0393 15.8665 89.0356 15.9236C88.9308 17.6919 88.8224 19.46 88.7103 21.2279C88.7067 21.2801 88.7038 21.3322 88.7002 21.386C88.6605 22.0162 88.62 22.6464 88.5802 23.2766C88.7523 23.2766 88.9243 23.2766 89.1014 23.2766C89.1101 23.2256 89.1195 23.1747 89.1289 23.1222C89.4911 21.0799 89.9118 19.0413 90.9637 17.2038C91.0374 17.0752 91.1082 16.9458 91.1798 16.8161C91.5282 16.197 91.9555 15.6858 92.4536 15.1698C92.5035 15.1169 92.5533 15.0639 92.6047 15.0095C95.2238 12.3634 100.914 12.0109 103.829 14.3908Z" fill="var(--fill-0, white)"/>
<path id="Vector_4" d="M128.644 14.35C128.775 14.4571 128.904 14.5657 129.031 14.676C129.094 14.7304 129.157 14.7848 129.223 14.8407C131.989 17.3254 132.417 21.3394 132.525 24.7409C132.553 25.8244 132.541 26.9093 132.54 27.9932C132.539 28.3737 132.539 28.7542 132.539 29.1349C132.538 29.8526 132.538 30.5703 132.538 31.288C132.536 32.1063 132.536 32.9247 132.535 33.743C132.535 35.4237 132.533 37.1043 132.532 38.785C130.959 38.785 129.385 38.785 127.764 38.785C127.763 38.3843 127.761 37.9836 127.76 37.5707C127.755 36.2394 127.749 34.9079 127.743 33.5765C127.739 32.7701 127.735 31.9638 127.733 31.1573C127.73 30.4535 127.727 29.7495 127.724 29.0456C127.722 28.6739 127.72 28.3021 127.719 27.9303C127.895 22.8317 127.895 22.8317 125.753 18.3417C125.713 18.2944 125.671 18.2471 125.629 18.1983C125.076 17.6028 124.132 17.1504 123.294 17.0729C123.209 17.0637 123.125 17.0545 123.036 17.045C121.077 16.8792 119.45 17.3995 117.937 18.5959C115.992 20.3009 115.234 23.0489 114.821 25.4264C114.806 25.5107 114.792 25.5951 114.776 25.6819C114.515 27.2684 114.48 28.8526 114.474 30.4542C114.473 30.7483 114.471 31.0423 114.469 31.3363C114.466 31.8902 114.463 32.4441 114.46 32.9981C114.458 33.6299 114.454 34.2618 114.45 34.8936C114.442 36.1907 114.436 37.4879 114.43 38.785C112.856 38.785 111.283 38.785 109.662 38.785C109.652 36.5269 109.643 34.2689 109.634 32.0108C109.633 31.7398 109.631 31.4688 109.63 31.1978C109.63 31.1438 109.63 31.09 109.629 31.0344C109.626 30.2839 109.623 29.5335 109.62 28.7831C109.615 27.4863 109.609 26.1895 109.604 24.8927C109.604 24.842 109.603 24.7912 109.603 24.7389C109.588 21.0086 109.583 17.2785 109.587 13.5482C111.038 13.5482 112.488 13.5482 113.983 13.5482C113.983 14.1151 113.973 14.6716 113.936 15.236C113.931 15.3155 113.926 15.3949 113.921 15.4767C113.905 15.7366 113.888 15.9964 113.871 16.2561C113.86 16.4381 113.848 16.6202 113.837 16.8022C113.813 17.1825 113.788 17.5627 113.764 17.943C113.736 18.3809 113.708 18.8188 113.68 19.2568C113.654 19.6805 113.627 20.1042 113.6 20.528C113.589 20.7072 113.577 20.8865 113.566 21.0657C113.55 21.3166 113.534 21.5673 113.518 21.8181C113.513 21.8914 113.508 21.9647 113.503 22.0401C113.475 22.477 113.437 22.9117 113.387 23.3468C113.584 23.3468 113.78 23.3468 113.983 23.3468C113.988 23.2883 113.994 23.2298 114 23.1695C114.163 21.7225 114.501 20.2741 115.026 18.9057C115.047 18.848 115.07 18.7902 115.092 18.7307C115.565 17.5148 116.164 16.4504 117.037 15.4515C117.109 15.3659 117.109 15.3659 117.182 15.2786C118.425 13.8658 120.447 13.1103 122.343 12.9285C124.561 12.7687 126.85 12.9982 128.644 14.35Z" fill="var(--fill-0, white)"/>
<path id="Vector_5" d="M53.7173 13.5483C55.2903 13.5483 56.8634 13.5483 58.4849 13.5483C58.4849 21.8765 58.4849 30.2046 58.4849 38.7852C56.9111 38.7852 55.338 38.7852 53.7173 38.7852C53.7173 30.457 53.7173 22.1288 53.7173 13.5483Z" fill="var(--fill-0, white)"/>
<path id="Vector_6" d="M155.997 36.882H151.528V37.5869H155.997V36.882Z" fill="var(--fill-0, white)"/>
<path id="Vector_7" d="M155.997 35.0489H151.528V35.7539H155.997V35.0489Z" fill="var(--fill-0, white)"/>
<path id="Vector_8" d="M58.3359 9.34637H53.8662V11.6358H58.3359V9.34637Z" fill="var(--fill-0, white)"/>
<path id="Vector_9" d="M41.7255 5.34058e-05C41.7631 5.34058e-05 41.8014 5.34058e-05 41.8405 5.34058e-05C41.9171 0.096779 41.9171 0.0967786 41.9973 0.224662C42.0241 0.266374 42.0508 0.308084 42.0783 0.351025C42.139 0.457076 42.1831 0.557055 42.2265 0.671565C42.2634 0.727735 42.2634 0.727736 42.301 0.785063C42.3841 0.914175 42.4376 1.04264 42.4961 1.18505C42.5149 1.21765 42.5345 1.25018 42.554 1.2838C42.6241 1.40409 42.6733 1.53017 42.7275 1.65906C42.7549 1.70425 42.7549 1.70425 42.7824 1.75037C42.8352 1.84355 42.8728 1.92929 42.9104 2.02934C42.9769 2.20573 43.0528 2.37684 43.1316 2.54781C43.2364 2.77524 43.3333 3.0039 43.4207 3.23906C43.454 3.32711 43.4865 3.41516 43.5198 3.50321C43.5357 3.5468 43.5523 3.59032 43.5689 3.63529C43.6029 3.72413 43.6376 3.81124 43.6759 3.89821C43.7338 4.03961 43.7743 4.18173 43.8155 4.3287C43.8458 4.43353 43.8458 4.43353 43.9051 4.56719C43.955 4.68669 43.9861 4.80091 44.015 4.92706C44.041 5.03043 44.0735 5.13027 44.1075 5.23133C44.255 5.67831 44.3822 6.12637 44.474 6.5891C44.4979 6.70369 44.5261 6.81487 44.5579 6.92735C44.6136 7.12941 44.6519 7.33363 44.688 7.54002C44.7184 7.71381 44.7531 7.88579 44.7914 8.05799C44.8362 8.27089 44.8673 8.48234 44.8911 8.69878C44.9107 8.86541 44.9331 9.03059 44.9598 9.19614C45.0552 9.78394 45.1124 10.3658 45.1463 10.9604C45.155 11.094 45.1651 11.2272 45.1767 11.3606C45.2866 12.6964 45.2808 14.0603 45.1651 15.3953C45.155 15.5259 45.1471 15.6564 45.1398 15.7872C45.1015 16.4374 45.0126 17.0723 44.9078 17.7139C44.8825 17.87 44.8593 18.0264 44.8362 18.183C44.7957 18.4587 44.7451 18.7297 44.6801 19.0007C44.654 19.1177 44.6352 19.2339 44.6179 19.3525C44.5839 19.5753 44.5261 19.7867 44.4617 20.0022C44.4314 20.1123 44.4082 20.2188 44.3873 20.3308C44.3439 20.5569 44.2861 20.7776 44.2254 20.9992C44.208 21.0629 44.208 21.0629 44.1899 21.1278C44.0837 21.5107 43.9629 21.8877 43.8371 22.2643C43.7916 22.4006 43.7497 22.5373 43.7106 22.6758C43.6521 22.8769 43.5783 23.0693 43.5003 23.263C43.4171 23.4734 43.334 23.6834 43.2595 23.8975C43.1258 24.2812 42.9617 24.6519 42.799 25.0234C42.7333 25.1743 42.6704 25.325 42.614 25.4799C42.5207 25.7256 42.3935 25.9544 42.2713 26.186C42.2063 26.3109 42.1426 26.4365 42.0819 26.5637C42.0096 26.7133 41.933 26.8593 41.8528 27.0046C41.7978 27.1055 41.7443 27.2073 41.6915 27.3093C41.5896 27.5011 41.4783 27.6845 41.3626 27.8679C41.3142 27.9457 41.2679 28.0236 41.2245 28.1043C41.072 28.3832 40.8963 28.6483 40.7236 28.914C40.7012 28.9506 40.6795 28.9871 40.6563 29.0247C40.6202 29.0848 40.6202 29.0848 40.5833 29.1461C40.5609 29.1842 40.5378 29.2224 40.5146 29.2618C40.4944 29.2904 40.4742 29.319 40.4532 29.3485C40.4279 29.3485 40.4026 29.3485 40.3766 29.3485C40.3513 29.4267 40.3252 29.5049 40.2992 29.5855C40.2739 29.5855 40.2486 29.5855 40.2219 29.5855C40.2132 29.6133 40.2038 29.6412 40.1937 29.6699C40.138 29.8003 40.0664 29.8997 39.9811 30.0126C39.9501 30.0549 39.9182 30.0973 39.8864 30.1396C39.8431 30.1977 39.8431 30.1977 39.7982 30.257C39.7614 30.3079 39.7245 30.359 39.6876 30.4101C39.2315 31.0337 38.7464 31.6302 38.2339 32.2059C38.1565 32.2937 38.0799 32.3821 38.004 32.4714C37.983 32.496 37.962 32.5205 37.9404 32.5458C37.8876 32.6081 37.8348 32.6704 37.782 32.7328C37.751 32.7688 37.7199 32.8047 37.6881 32.8418C37.6599 32.8751 37.6317 32.9084 37.602 32.9429C37.5247 33.022 37.5247 33.022 37.409 33.0615C37.396 33.0876 37.3837 33.1136 37.3707 33.1405C37.3577 33.1665 37.3447 33.1926 37.3317 33.2195C37.2933 33.2325 37.2558 33.2455 37.216 33.259C37.2052 33.2883 37.1943 33.3176 37.1827 33.3478C37.1278 33.4847 37.0519 33.5536 36.9463 33.654C36.9145 33.6874 36.8827 33.7208 36.8502 33.7552C36.7541 33.8515 36.7541 33.8515 36.655 33.9305C36.5553 34.0141 36.4859 34.1032 36.4071 34.207C36.3434 34.2737 36.2791 34.3394 36.214 34.4045C36.1822 34.437 36.1504 34.4696 36.1179 34.5033C36.0861 34.5358 36.0543 34.5684 36.0217 34.602C35.9899 34.6354 35.9581 34.6688 35.9249 34.7032C35.8331 34.7953 35.7369 34.8751 35.6364 34.9575C35.5714 35.0225 35.507 35.0883 35.4434 35.155C35.3791 35.2208 35.3147 35.2866 35.2511 35.3525C35.2309 35.3739 35.2106 35.3955 35.1897 35.4176C35.1347 35.4763 35.0769 35.5331 35.0198 35.5895C34.9945 35.5895 34.9685 35.5895 34.9424 35.5895C34.9338 35.6115 34.9251 35.6335 34.9157 35.6562C34.8369 35.7995 34.7342 35.9144 34.5882 35.987C34.5116 36.0187 34.5116 36.0187 34.4798 36.103C34.4313 36.2028 34.3829 36.2122 34.2875 36.2609C34.2745 36.287 34.2622 36.3131 34.2484 36.34C34.2 36.4399 34.1516 36.4492 34.0562 36.498C34.0431 36.524 34.0308 36.5501 34.0178 36.577C33.9687 36.6768 33.9202 36.6862 33.8248 36.735C33.814 36.7588 33.8024 36.7826 33.7908 36.8072C33.7395 36.9095 33.6788 36.9662 33.5935 37.0411C33.5667 37.0653 33.5393 37.0896 33.5118 37.1146C33.4395 37.1695 33.4395 37.1695 33.3622 37.1695C33.3528 37.1918 33.3441 37.2142 33.334 37.2372C33.2754 37.3453 33.2053 37.4196 33.1207 37.5071C33.0882 37.5404 33.0556 37.5738 33.0224 37.6082C32.9884 37.6426 32.9544 37.6771 32.919 37.7126C32.885 37.7477 32.8511 37.7828 32.8164 37.8189C32.7679 37.8686 32.7679 37.8686 32.718 37.9194C32.6884 37.9498 32.6588 37.9803 32.6277 38.0116C32.5532 38.078 32.5532 38.078 32.4759 38.078C32.4665 38.1015 32.4563 38.125 32.4462 38.1492C32.3949 38.2438 32.345 38.292 32.2633 38.3601C32.0696 38.5286 31.8925 38.7118 31.7132 38.8968C31.6597 38.9519 31.6062 39.007 31.5527 39.0621C31.4594 39.1578 31.3669 39.2536 31.2744 39.3494C31.1631 39.4643 31.0517 39.5792 30.9397 39.6939C30.871 39.7651 30.8016 39.8363 30.7329 39.9078C30.7011 39.9401 30.67 39.9723 30.6375 40.0056C30.61 40.0339 30.5826 40.0622 30.5544 40.0914C30.4669 40.1766 30.3744 40.2526 30.2797 40.3295C30.1452 40.4615 30.0209 40.6003 29.8965 40.7418C29.7302 40.9292 29.5589 41.1094 29.3832 41.2874C29.1982 41.4752 29.0218 41.6663 28.8533 41.8701C28.7919 41.9424 28.7305 42.0154 28.6683 42.087C28.6394 42.1209 28.6105 42.1549 28.5808 42.1896C28.5064 42.2648 28.5064 42.2648 28.4297 42.2648C28.421 42.2937 28.4124 42.3219 28.403 42.3516C28.3423 42.4853 28.2627 42.5569 28.1601 42.6602C27.9266 42.9104 27.7126 43.1677 27.5131 43.4475C27.4733 43.5024 27.4314 43.5552 27.3887 43.608C27.3634 43.608 27.3381 43.608 27.3121 43.608C27.3027 43.6362 27.2933 43.6651 27.2832 43.694C27.2297 43.8183 27.1639 43.9022 27.0786 44.0056C26.9167 44.2029 26.7649 44.4061 26.6159 44.6143C26.5415 44.714 26.5415 44.714 26.4808 44.7748C26.4077 44.8514 26.3622 44.9374 26.3101 45.0299C26.266 45.0943 26.222 45.1586 26.1771 45.2222C26.0701 45.3777 25.9747 45.5345 25.8858 45.7015C25.8605 45.7015 25.8352 45.7015 25.8092 45.7015C25.8005 45.7348 25.7918 45.768 25.7824 45.8027C25.7318 45.9379 25.6725 46.0297 25.5887 46.1447C25.5113 46.2546 25.4484 46.3724 25.3848 46.4917C25.3494 46.5567 25.3147 46.6218 25.2793 46.6861C25.2504 46.7396 25.2214 46.7931 25.1925 46.8466C25.1672 46.8466 25.1412 46.8466 25.1152 46.8466C25.1065 46.8849 25.0978 46.9232 25.0884 46.963C25.019 47.2117 24.8795 47.4257 24.7443 47.6418C24.6836 47.7394 24.633 47.8341 24.5903 47.9404C24.5368 48.0712 24.5368 48.0712 24.4819 48.163C24.4111 48.2881 24.3633 48.4161 24.312 48.5505C24.2636 48.6741 24.2094 48.7934 24.1544 48.9134C23.9896 49.2749 23.858 49.6479 23.7265 50.0231C23.6918 50.1192 23.6534 50.2132 23.6144 50.3079C23.5154 50.5624 23.4424 50.8248 23.3708 51.0887C23.3513 51.1602 23.331 51.2318 23.3115 51.3034C23.0101 52.3827 22.8055 53.5032 22.8033 54.6288C22.8019 54.7061 22.8011 54.7835 22.7997 54.8608C22.7975 55.0994 22.7997 55.3379 22.8033 55.5765C22.8033 55.6155 22.804 55.6546 22.8047 55.6951C22.8141 56.3341 22.8886 56.9508 23.0173 57.5761C23.0368 57.686 23.0382 57.7879 23.0368 57.8992C23.0361 57.9383 23.0361 57.9766 23.0354 58.0163C23.0346 58.0597 23.0346 58.0597 23.0339 58.1045C23.0086 58.1045 22.9833 58.1045 22.9573 58.1045C22.7462 57.7048 22.6175 57.2717 22.4903 56.838C22.4679 56.7621 22.444 56.6862 22.4187 56.611C22.3811 56.4917 22.3544 56.3753 22.3305 56.2524C22.3182 56.1881 22.3182 56.1881 22.3059 56.123C22.2973 56.0782 22.2886 56.0341 22.2806 55.9886C22.272 55.9445 22.2633 55.8997 22.2546 55.8541C22.2387 55.7717 22.2228 55.6893 22.2069 55.6069C22.1939 55.5367 22.1801 55.4673 22.1657 55.3972C21.9026 53.9644 22.0363 52.3393 22.2777 50.9181C22.2835 50.8841 22.2893 50.8508 22.2951 50.8161C22.3652 50.4062 22.4549 50.0108 22.572 49.6118C22.598 49.5084 22.6226 49.405 22.6464 49.3009C22.817 48.586 23.0679 47.9035 23.3498 47.2276C23.4084 47.0888 23.4648 46.95 23.5154 46.8076C23.6354 46.4765 23.7894 46.1642 23.9498 45.8519C23.9701 45.8121 23.9903 45.7724 24.0113 45.7312C24.1674 45.4275 24.3294 45.1283 24.4985 44.8326C24.5217 44.7914 24.5455 44.7502 24.5694 44.7075C24.6352 44.5911 24.7017 44.4747 24.7682 44.3584C24.7877 44.3244 24.8072 44.2904 24.8275 44.255C24.9453 44.0497 25.0732 43.8538 25.2084 43.6593C25.259 43.5834 25.3053 43.5082 25.3487 43.428C25.4108 43.3145 25.4752 43.206 25.5439 43.0969C25.5634 43.0665 25.5822 43.0362 25.6024 43.0043C25.6198 42.9819 25.6371 42.9595 25.6545 42.9364C25.6805 42.9364 25.7058 42.9364 25.7318 42.9364C25.7347 42.9161 25.7376 42.8952 25.7405 42.8742C25.7831 42.7376 25.8619 42.6284 25.9415 42.512C25.9653 42.4759 25.9653 42.4759 25.9892 42.4398C26.0297 42.3798 26.073 42.3219 26.1171 42.2648C26.1424 42.2648 26.1685 42.2648 26.1945 42.2648C26.1974 42.2431 26.201 42.2207 26.2039 42.1983C26.2422 42.0783 26.3094 42.0067 26.3868 41.9091C26.4432 41.8332 26.4996 41.7566 26.5559 41.6799C26.5856 41.6387 26.6159 41.5975 26.647 41.5551C26.7005 41.4819 26.7533 41.4084 26.8053 41.3344C26.8256 41.3059 26.8458 41.2773 26.8661 41.2478C26.8841 41.2228 26.9015 41.1977 26.9188 41.1719C26.934 41.1546 26.9492 41.1373 26.9651 41.1195C26.9904 41.1195 27.0157 41.1195 27.0425 41.1195C27.0511 41.0917 27.0598 41.064 27.0685 41.0356C27.1314 40.8949 27.2138 40.8023 27.3121 40.685C27.1379 40.6725 26.9637 40.6601 26.7894 40.6479C26.7634 40.6461 26.7367 40.6443 26.7099 40.6424C26.3347 40.6163 25.9595 40.5941 25.5836 40.5835C25.288 40.573 24.9959 40.5365 24.7024 40.4987C24.6149 40.4876 24.5282 40.4766 24.4407 40.4657C23.6708 40.3688 22.9067 40.2597 22.1476 40.0925C22.1035 40.0828 22.0601 40.0732 22.0146 40.0633C21.7117 39.9965 21.4095 39.9268 21.1074 39.8555C21.0618 39.8449 21.0618 39.8449 21.0155 39.8341C20.6172 39.7405 20.2319 39.6156 19.8437 39.4866C19.6825 39.4334 19.5213 39.3851 19.3586 39.3395C19.0883 39.2619 18.828 39.1611 18.5662 39.0572C18.4853 39.0254 18.4041 38.9944 18.3228 38.9636C18.2958 38.9534 18.2688 38.9432 18.2409 38.9326C18.1663 38.9044 18.0918 38.8762 18.0172 38.8479C17.8801 38.7944 17.7468 38.7337 17.6132 38.672C17.4622 38.603 17.3096 38.5383 17.1571 38.473C16.3577 38.1308 15.5791 37.7468 14.8165 37.3255C14.7539 37.291 14.6911 37.2565 14.6284 37.2221C14.4454 37.1211 14.267 37.0161 14.0919 36.9015C14.0102 36.8496 13.9271 36.802 13.8429 36.7547C13.6782 36.662 13.5194 36.562 13.3611 36.4585C13.311 36.426 13.311 36.426 13.2599 36.3929C13.0629 36.2651 12.8672 36.1357 12.6738 36.0022C12.6193 35.9648 12.5645 35.9278 12.5094 35.8915C12.3046 35.7552 12.1116 35.6066 11.92 35.4518C11.8325 35.3815 11.7463 35.3152 11.6503 35.2576C11.5043 35.1658 11.3759 35.0542 11.2439 34.9426C11.2173 34.9204 11.1907 34.898 11.1633 34.8751C10.9594 34.7039 10.9594 34.7039 10.8691 34.6248C10.7545 34.5244 10.6383 34.4442 10.5093 34.365C10.4462 34.3105 10.3844 34.2545 10.3239 34.1971C10.2068 34.0872 10.0897 33.9779 9.96981 33.8712C9.45119 33.4076 8.94739 32.929 8.46174 32.4294C8.39393 32.3597 8.32591 32.2902 8.25788 32.2207C8.05771 32.0157 7.86021 31.8106 7.67659 31.5897C7.57921 31.4735 7.47576 31.3632 7.37325 31.2519C7.18682 31.048 7.01035 30.8395 6.84068 30.6206C6.77562 30.5355 6.77562 30.5355 6.71121 30.4747C6.65547 30.415 6.65548 30.415 6.60314 30.3243C6.52658 30.1951 6.43397 30.0843 6.33754 29.9706C5.88398 29.4281 5.88398 29.4281 5.81039 29.273C5.7707 29.1936 5.72747 29.1291 5.67398 29.059C5.65533 29.0343 5.63667 29.0095 5.61752 28.984C5.59756 28.9576 5.57769 28.9313 5.55716 28.9041C5.37397 28.6582 5.20849 28.4063 5.05162 28.1421C4.95504 27.9798 4.85188 27.8282 4.73752 27.6784C4.67028 27.5822 4.62293 27.4792 4.5737 27.3725C4.53626 27.2952 4.49462 27.224 4.44922 27.1513C4.07707 26.5539 3.76346 25.9199 3.46902 25.2796C3.40642 25.1437 3.34352 25.0082 3.27767 24.8739C3.22894 24.7734 3.18535 24.6727 3.14371 24.569C3.12738 24.5283 3.11103 24.4876 3.09419 24.4457C3.08479 24.4222 3.0754 24.3987 3.06571 24.3745C3.02689 24.2775 2.98785 24.1806 2.94874 24.0837C2.91824 24.0077 2.88766 23.9316 2.85708 23.8555C2.83539 23.8016 2.83539 23.8016 2.8132 23.7467C2.64657 23.3304 2.50285 22.907 2.36413 22.4803C2.3394 22.4044 2.31446 22.3285 2.28959 22.2526C1.98358 21.3163 1.98358 21.3163 1.95387 20.935C2.00476 20.922 2.05559 20.9089 2.108 20.8955C2.22395 21.034 2.30159 21.1656 2.37294 21.3325C2.46613 21.5455 2.56408 21.7549 2.66681 21.9632C2.72529 22.0818 2.78276 22.2009 2.84024 22.32C2.93226 22.5089 3.02964 22.694 3.12911 22.8788C3.19027 22.995 3.24796 23.1126 3.30507 23.2309C3.46302 23.5563 3.63703 23.8632 3.83062 24.1676C3.91173 24.2957 3.98865 24.4244 4.05899 24.5591C4.14538 24.7239 4.24904 24.8725 4.35524 25.0243C4.41553 25.1148 4.46672 25.2055 4.51667 25.3022C4.60053 25.4632 4.70195 25.6005 4.81545 25.7407C4.88275 25.833 4.88275 25.833 4.95114 25.9595C5.05155 26.1443 5.18059 26.305 5.30905 26.4699C5.562 26.7958 5.562 26.7958 5.63545 26.9216C5.72256 27.07 5.83208 27.1987 5.94015 27.3315C5.96394 27.361 5.98772 27.3905 6.01222 27.4207C6.18457 27.6334 6.35908 27.8441 6.53663 28.0521C6.63082 28.1633 6.71916 28.2763 6.80381 28.3952C6.93372 28.5749 7.08047 28.7353 7.2312 28.8967C7.27031 28.9392 7.27031 28.9392 7.31029 28.9824C7.43448 29.1166 7.55998 29.2491 7.68808 29.3795C7.77671 29.4698 7.86129 29.5614 7.94175 29.6595C8.16152 29.9201 8.40073 30.1563 8.6557 30.3803C8.75061 30.4674 8.83975 30.5591 8.92925 30.652C9.14106 30.8711 9.35996 31.0719 9.59888 31.2593C9.76118 31.3869 9.91147 31.5252 10.0625 31.6665C10.1967 31.7892 10.3356 31.9051 10.4755 32.0209C10.5545 32.0869 10.6328 32.1534 10.7106 32.2209C10.7313 32.2387 10.7519 32.2567 10.7733 32.2751C10.8314 32.3256 10.8895 32.3762 10.9475 32.4268C11.0404 32.5074 11.0404 32.5074 11.1228 32.5456C11.2097 32.5909 11.2789 32.644 11.3549 32.7065C11.3835 32.7297 11.4122 32.753 11.4417 32.777C11.4868 32.814 11.4868 32.814 11.533 32.8516C11.7557 33.0316 11.9777 33.2009 12.2207 33.3516C12.3806 33.4563 12.5287 33.5769 12.678 33.6967C12.7769 33.7743 12.7769 33.7743 12.8766 33.8103C13.0123 33.8667 13.1218 33.9548 13.2383 34.0441C13.403 34.1675 13.5612 34.2792 13.7476 34.3659C13.8452 34.4154 13.9344 34.4748 14.0259 34.5353C14.3557 34.7535 14.6917 34.9518 15.0441 35.1287C15.1969 35.207 15.3471 35.2896 15.4976 35.3722C15.7702 35.5213 16.0468 35.6571 16.3286 35.787C16.4089 35.8256 16.4892 35.8643 16.5694 35.903C16.8459 36.0339 17.1273 36.1514 17.4093 36.2688C17.5127 36.3122 17.6155 36.357 17.7183 36.4017C19.561 37.1853 21.4963 37.6865 23.459 38.0253C23.5291 38.0374 23.5992 38.0499 23.6693 38.0623C23.8949 38.1019 24.119 38.1344 24.3467 38.157C24.4103 38.1636 24.474 38.1702 24.5376 38.1767C24.5694 38.18 24.6019 38.1832 24.6344 38.1866C24.7559 38.1992 24.8773 38.2126 24.9988 38.2261C25.1224 38.2396 25.246 38.2526 25.3696 38.2656C25.4296 38.272 25.4896 38.2786 25.5496 38.2853C26.3304 38.3734 27.1169 38.4007 27.902 38.4295C28.001 38.4333 28.0994 38.4376 28.1984 38.442C28.3423 38.4483 28.4861 38.4529 28.63 38.4561C28.7066 38.4581 28.7832 38.4616 28.8591 38.4653C29.1114 38.4706 29.1114 38.4706 29.3355 38.3669C29.4136 38.2876 29.4808 38.2074 29.5473 38.1175C29.5907 38.0654 29.6348 38.0135 29.6796 37.962C29.7013 37.9363 29.723 37.9107 29.7447 37.8843C29.8777 37.7318 30.0143 37.5809 30.164 37.4459C30.1893 37.4459 30.2146 37.4459 30.2406 37.4459C30.2507 37.4231 30.2609 37.4003 30.2717 37.3767C30.3924 37.1459 30.5992 36.9556 30.7806 36.7745C30.8132 36.7394 30.8457 36.7044 30.8789 36.6683C30.9729 36.577 30.9729 36.577 31.0575 36.535C31.1341 36.5032 31.1341 36.5032 31.1659 36.419C31.2144 36.3191 31.2635 36.3098 31.3582 36.2609C31.385 36.2087 31.4103 36.1559 31.4356 36.103C31.4978 36.0354 31.5628 35.9697 31.6279 35.9055C31.6597 35.8721 31.6915 35.8387 31.7248 35.8043C31.8209 35.708 31.8209 35.708 31.9199 35.629C32.019 35.5453 32.0884 35.4563 32.1679 35.3525C32.3414 35.1615 32.3414 35.1615 32.4759 35.1155C32.4874 35.0927 32.4983 35.0699 32.5098 35.0464C32.5684 34.9264 32.6515 34.8523 32.7455 34.76C32.7773 34.7266 32.8091 34.6932 32.8424 34.6588C32.9385 34.5625 32.9385 34.5625 33.0376 34.4835C33.1366 34.3998 33.206 34.3107 33.2855 34.207C33.3484 34.1402 33.4128 34.0746 33.4778 34.0095C33.6716 33.8151 33.8581 33.6186 34.0345 33.4083C34.1711 33.2483 34.3186 33.1148 34.4798 32.9825C34.5774 32.8878 34.6663 32.7935 34.7501 32.6862C34.8333 32.5794 34.9251 32.4867 35.0198 32.39C35.0516 32.3509 35.0834 32.3118 35.1159 32.2715C35.2077 32.1588 35.3024 32.058 35.4051 31.9555C35.6444 31.7144 35.8728 31.4684 36.0868 31.2028C36.1078 31.1774 36.128 31.1521 36.149 31.126C36.1671 31.1032 36.1851 31.0803 36.2039 31.0569C36.2531 31.0075 36.2531 31.0075 36.3297 31.0075C36.3333 30.9838 36.3362 30.9602 36.3398 30.9359C36.3767 30.8244 36.4309 30.7999 36.5227 30.731C36.5625 30.6659 36.6008 30.6 36.6384 30.5335C36.676 30.4934 36.715 30.454 36.7541 30.415C36.7945 30.3685 36.8343 30.3216 36.8741 30.2743C36.8943 30.2506 36.9138 30.2269 36.9348 30.2025C36.9883 30.1393 36.9883 30.1393 37.0237 30.0595C37.049 30.0595 37.0743 30.0595 37.1003 30.0595C37.1105 30.0375 37.1199 30.0155 37.13 29.9928C37.1856 29.8861 37.2529 29.7982 37.3273 29.704C37.3533 29.6706 37.3794 29.6372 37.4061 29.6028C37.4864 29.5065 37.4864 29.5065 37.5695 29.4215C37.6497 29.3389 37.6982 29.2511 37.756 29.151C37.7943 29.1115 37.8326 29.072 37.8717 29.0325C37.884 28.9934 37.897 28.9543 37.91 28.914C37.9606 28.8608 38.0119 28.8082 38.064 28.756C38.1117 28.6904 38.1587 28.6237 38.2035 28.556C38.2266 28.5222 38.249 28.4883 38.2729 28.4534C38.3192 28.3833 38.3654 28.313 38.411 28.2425C38.4363 28.2425 38.4616 28.2425 38.4883 28.2425C38.4963 28.2099 38.5042 28.1773 38.5122 28.1437C38.5678 27.9977 38.6365 27.8993 38.7298 27.777C38.8021 27.6814 38.8707 27.5836 38.9387 27.4846C38.9604 27.4531 38.9813 27.4215 39.0038 27.3891C39.0688 27.2934 39.0688 27.2934 39.1274 27.1839C39.1447 27.1552 39.1628 27.1265 39.1816 27.097C39.2069 27.097 39.2322 27.097 39.2589 27.097C39.2626 27.0681 39.2669 27.0393 39.2712 27.0095C39.2994 26.89 39.3414 26.8191 39.4108 26.7193C39.4852 26.6109 39.5503 26.5061 39.6059 26.386C39.6312 26.386 39.6565 26.386 39.6826 26.386C39.6876 26.3444 39.6876 26.3444 39.692 26.302C39.7281 26.1606 39.7939 26.0717 39.8756 25.9515C39.9421 25.8342 40.005 25.715 40.0679 25.596C40.0975 25.5417 40.1272 25.4873 40.1575 25.433C40.1915 25.3689 40.2262 25.3047 40.2609 25.2405C40.2949 25.1773 40.2949 25.1773 40.3296 25.1127C40.5869 24.6269 40.8183 24.128 41.0351 23.6216C41.0691 23.5446 41.1053 23.4692 41.1421 23.3938C41.4494 22.771 41.6901 22.1215 41.9012 21.4584C41.9395 21.3374 41.9836 21.2204 42.0313 21.1029C42.1246 20.8674 42.1947 20.6256 42.2648 20.382C42.2829 20.3186 42.3017 20.2553 42.3205 20.1919C42.3291 20.1604 42.3386 20.1289 42.348 20.0964C42.3805 19.9861 42.4152 19.8764 42.4492 19.7666C42.5561 19.422 42.6458 19.0748 42.7275 18.723C42.7376 18.6801 42.747 18.6372 42.7578 18.5929C42.8974 17.9963 43.0289 17.3997 43.1352 16.796C43.1504 16.7136 43.1663 16.6317 43.1836 16.5497C43.2407 16.2712 43.2841 15.9955 43.3138 15.7127C43.3326 15.5356 43.3564 15.3604 43.3839 15.1847C43.4583 14.7155 43.4981 14.2454 43.5321 13.7716C43.5415 13.6407 43.5509 13.5098 43.561 13.3788C43.7265 11.1555 43.6889 8.87915 43.3239 6.67658C43.3029 6.5432 43.287 6.40968 43.2704 6.27572C43.2306 5.96538 43.1742 5.65966 43.1135 5.353C43.0954 5.26299 43.0781 5.17285 43.0607 5.0827C43.0051 4.79809 42.9451 4.51724 42.867 4.23798C42.8337 4.11515 42.8092 3.9911 42.7853 3.86611C42.747 3.68076 42.7014 3.50531 42.64 3.32711C42.6082 3.22872 42.5843 3.13004 42.5612 3.0292C42.4094 2.39629 42.2034 1.78138 41.9908 1.16777C41.9482 1.04141 41.907 0.914247 41.8672 0.786798C41.8383 0.699614 41.8383 0.699614 41.7761 0.577732C41.7067 0.383051 41.7154 0.204854 41.7255 5.34058e-05Z" fill="url(#paint0_linear_194_96)"/>
<path id="Vector_10" d="M46.4656 1.89593C46.6253 2.01247 46.7092 2.12481 46.8025 2.30084C46.8292 2.35007 46.8552 2.3993 46.882 2.44853C46.8957 2.47426 46.9087 2.5 46.9232 2.52653C46.9673 2.60952 47.0128 2.69186 47.0591 2.77406C47.0743 2.80174 47.0902 2.8295 47.1061 2.85806C47.1357 2.91141 47.1654 2.96469 47.195 3.01796C47.2846 3.18011 47.3584 3.34363 47.4285 3.51547C47.456 3.56065 47.456 3.56065 47.4842 3.60678C47.5369 3.69996 47.5738 3.7857 47.6114 3.88575C47.6779 4.06048 47.7524 4.23 47.8312 4.39923C48.0292 4.83045 48.1991 5.27092 48.3603 5.71789C48.3943 5.81289 48.429 5.90773 48.4644 6.00258C48.4883 6.06887 48.5121 6.13516 48.5367 6.20145C48.5483 6.2321 48.5591 6.26283 48.5707 6.29442C48.6228 6.43654 48.669 6.57679 48.7037 6.72419C48.7333 6.84853 48.7681 6.96152 48.8136 7.0803C48.8837 7.27317 48.9343 7.46633 48.9813 7.6665C49.0066 7.77378 49.037 7.87846 49.0688 7.98386C49.1165 8.14168 49.149 8.29855 49.1787 8.4607C49.2054 8.59234 49.2408 8.7208 49.2763 8.85042C49.342 9.09447 49.389 9.33867 49.4295 9.58829C49.4577 9.76027 49.491 9.92965 49.5293 10.0996C49.6008 10.4355 49.6413 10.7755 49.684 11.1163C49.6984 11.2281 49.7136 11.3397 49.7295 11.4512C49.7982 11.943 49.8517 12.4331 49.8828 12.9288C49.8857 12.9661 49.8878 13.0033 49.89 13.0418C50.023 15.1733 49.9869 17.3375 49.6478 19.4465C49.624 19.5986 49.6045 19.7509 49.5857 19.9036C49.5582 20.1183 49.5235 20.3272 49.4736 20.5374C49.4245 20.7532 49.3804 20.9683 49.3435 21.1868C49.1751 22.1301 48.9112 23.0641 48.6235 23.9764C48.6105 24.0176 48.6105 24.0176 48.5974 24.0596C48.4529 24.521 48.2895 24.9737 48.1182 25.4254C48.0885 25.5039 48.0596 25.5826 48.0307 25.6614C47.9251 25.9492 47.8073 26.2302 47.6859 26.5114C47.6324 26.6367 47.5803 26.7627 47.5297 26.8895C47.2376 27.6108 46.9196 28.3263 46.5133 28.9887C46.462 29.0755 46.462 29.0755 46.4106 29.1847C46.3232 29.362 46.2191 29.5272 46.1157 29.6953C46.0463 29.8143 45.9863 29.9351 45.9256 30.0594C45.7781 30.3125 45.6162 30.5552 45.4492 30.7953C45.3718 30.9102 45.3017 31.0289 45.2337 31.1496C45.2207 31.1679 45.207 31.1862 45.1932 31.2049C45.1679 31.2049 45.1427 31.2049 45.1166 31.2049C45.1065 31.2399 45.0971 31.275 45.0877 31.3111C45.0371 31.4486 44.9771 31.5281 44.8853 31.6394C44.8578 31.6826 44.8311 31.7257 44.8036 31.7703C44.7797 31.8053 44.7559 31.8403 44.7313 31.8764C44.7053 31.8764 44.68 31.8764 44.654 31.8764C44.6446 31.9041 44.6359 31.9317 44.6265 31.9602C44.5679 32.0937 44.4891 32.2002 44.4009 32.3134C44.3662 32.3584 44.3315 32.4035 44.2976 32.4487C44.2795 32.4716 44.2621 32.4944 44.2441 32.5179C44.192 32.5862 44.1421 32.6553 44.0915 32.7249C44.0764 32.7466 44.0605 32.7683 44.0445 32.7907C44.0012 32.851 43.9578 32.9115 43.9144 32.9719C43.8443 33.0614 43.8443 33.0614 43.7677 33.1009C43.751 33.1364 43.751 33.1364 43.7337 33.1725C43.6831 33.2744 43.6159 33.3377 43.5363 33.4169C43.5233 33.443 43.511 33.469 43.498 33.4959C43.472 33.4959 43.4467 33.4959 43.4207 33.4959C43.4106 33.5191 43.3997 33.5423 43.3889 33.5663C43.344 33.6534 43.2956 33.7183 43.232 33.792C43.2103 33.8173 43.1886 33.8426 43.1662 33.8687C43.1438 33.8948 43.1214 33.9209 43.0983 33.9477C43.0534 33.9994 43.0093 34.0513 42.9645 34.103C42.9436 34.1275 42.9226 34.1519 42.9009 34.1771C42.8503 34.2376 42.8019 34.3006 42.7541 34.3639C42.7325 34.3902 42.7108 34.4167 42.6884 34.4439C42.6631 34.4439 42.6378 34.4439 42.6117 34.4439C42.5973 34.4782 42.5973 34.4781 42.5828 34.513C42.5264 34.6159 42.4628 34.6775 42.3804 34.7599C42.3356 34.8115 42.2915 34.8633 42.2474 34.9154C42.1165 35.0702 41.9857 35.2201 41.8259 35.345C41.7103 35.4437 41.6185 35.5533 41.5209 35.6701C41.3828 35.833 41.2339 35.9687 41.0698 36.1029C40.9729 36.1976 40.884 36.2919 40.8001 36.3991C40.7163 36.5062 40.6259 36.5997 40.5305 36.6954C40.4987 36.728 40.4669 36.7606 40.4343 36.7941C40.4025 36.8267 40.3707 36.8593 40.3375 36.8929C40.3056 36.9263 40.2738 36.9597 40.2413 36.9941C40.1495 37.0862 40.0526 37.1661 39.9521 37.2484C39.8553 37.3431 39.7663 37.4374 39.6825 37.5447C39.5986 37.6517 39.5083 37.7452 39.4129 37.8409C39.3839 37.8711 39.3557 37.9012 39.3261 37.9322C39.2321 38.0264 39.1367 38.1182 39.0391 38.2087C39.0102 38.2363 38.9805 38.2638 38.9502 38.2922C38.8736 38.3544 38.8736 38.3544 38.7962 38.3544C38.7832 38.3874 38.7832 38.3874 38.7695 38.4211C38.7044 38.5384 38.6213 38.6169 38.5266 38.7099C38.4948 38.7433 38.4629 38.7767 38.4297 38.8111C38.3335 38.9074 38.3335 38.9074 38.2352 38.9864C38.1355 39.0701 38.0661 39.1591 37.9865 39.2629C37.9237 39.3295 37.8593 39.3954 37.7943 39.4604C37.7624 39.4954 37.7306 39.5304 37.6981 39.5666C37.6012 39.6579 37.6012 39.6579 37.4979 39.6999C37.3872 39.7458 37.3793 39.7871 37.3316 39.8949C37.2933 39.9079 37.2557 39.921 37.2159 39.9344C37.1978 39.9723 37.1978 39.9723 37.1798 40.011C37.1292 40.1122 37.0822 40.1216 36.9846 40.1714C36.9723 40.1975 36.9593 40.2236 36.9463 40.2504C36.8978 40.3503 36.8487 40.3596 36.7533 40.4084C36.741 40.4344 36.728 40.4605 36.7149 40.4874C36.6665 40.5873 36.6173 40.5966 36.5226 40.6454C36.4959 40.6977 36.4706 40.7504 36.4453 40.8034C36.3513 40.9129 36.2826 40.9888 36.1489 41.0428C36.0361 41.0898 36.0347 41.1286 35.9826 41.2379C35.9284 41.3034 35.9284 41.3034 35.8655 41.3682C35.8417 41.3927 35.8185 41.4172 35.794 41.4425C35.7687 41.4685 35.7426 41.4944 35.7166 41.5212C35.6906 41.5482 35.6646 41.5751 35.6371 41.6029C35.5821 41.6597 35.5265 41.7164 35.4708 41.773C35.3855 41.86 35.3009 41.9475 35.2156 42.035C35.1621 42.0899 35.1079 42.1448 35.0544 42.1998C35.0291 42.2265 35.0031 42.2526 34.9771 42.28C34.9416 42.3155 34.9416 42.3155 34.9055 42.3523C34.8845 42.374 34.8636 42.395 34.8426 42.4167C34.7884 42.4622 34.7884 42.4622 34.711 42.4622C34.7009 42.4853 34.6915 42.5078 34.6807 42.5309C34.6293 42.6285 34.5701 42.7044 34.4992 42.7882C34.4754 42.8164 34.4522 42.8439 34.4284 42.8728C34.364 42.9364 34.364 42.9364 34.2874 42.9364C34.2773 42.961 34.2679 42.9856 34.2585 43.0102C34.2007 43.1107 34.1544 43.1229 34.0561 43.1736C34.0431 43.1996 34.0308 43.2256 34.0178 43.2524C33.9787 43.3311 33.9787 43.3311 33.9021 43.3687C33.7951 43.4266 33.7915 43.4945 33.7474 43.608C33.6585 43.7063 33.6585 43.7063 33.5551 43.8054C33.4192 43.9413 33.2927 44.0823 33.1683 44.2297C33.0527 44.3649 32.9341 44.4979 32.8156 44.6309C32.744 44.7083 32.744 44.7083 32.7071 44.7929C32.6818 44.7929 32.6565 44.7929 32.6298 44.7929C32.6196 44.816 32.6095 44.8391 32.5987 44.8623C32.5524 44.9519 32.5011 45.022 32.4375 45.0987C32.4172 45.1232 32.3977 45.1478 32.3775 45.1724C32.3218 45.2273 32.3218 45.2273 32.2445 45.2273C32.2416 45.2498 32.2387 45.2714 32.2358 45.2946C32.1953 45.4175 32.1266 45.484 32.0399 45.578C31.9112 45.7168 31.8071 45.857 31.7052 46.0175C31.6459 46.0992 31.5866 46.1809 31.5266 46.2618C31.442 46.3768 31.3589 46.4903 31.2815 46.6096C31.2555 46.6096 31.2302 46.6096 31.2042 46.6096C31.189 46.6529 31.189 46.6529 31.1738 46.6963C31.1254 46.8112 31.0683 46.9031 30.9967 47.005C30.9729 47.039 30.949 47.0737 30.9244 47.1091C30.8731 47.1799 30.8203 47.2493 30.7661 47.3187C30.696 47.3997 30.696 47.3997 30.6649 47.5183C30.6389 47.5183 30.6136 47.5183 30.5875 47.5183C30.5731 47.5587 30.5731 47.5587 30.5586 47.5999C30.5008 47.738 30.4307 47.8624 30.3562 47.9925C30.3309 47.9925 30.3056 47.9925 30.2789 47.9925C30.2702 48.025 30.2615 48.0575 30.2528 48.0908C30.1914 48.2585 30.1068 48.3966 30.0121 48.5455C29.8979 48.7262 29.7923 48.9041 29.7013 49.0985C29.6767 49.1463 29.6514 49.194 29.6261 49.2417C29.4208 49.6328 29.2306 50.0297 29.0477 50.4323C29.0101 50.5147 28.9718 50.5964 28.9335 50.6788C28.4781 51.6584 28.1087 52.7131 27.8831 53.7743C27.8614 53.8698 27.8376 53.9652 27.8108 54.0599C27.7776 54.1821 27.7552 54.2984 27.7378 54.4235C27.7169 54.5746 27.6944 54.725 27.6677 54.8753C27.6626 54.9042 27.6576 54.9339 27.6525 54.9642C27.6424 55.0206 27.6323 55.0763 27.6222 55.1327C27.5238 55.706 27.5369 56.298 27.5383 56.8778C27.5383 56.9956 27.5383 57.1135 27.5376 57.2313C27.5376 57.9506 27.5723 58.6388 27.6995 59.3465C27.714 59.4253 27.7277 59.5048 27.7407 59.5844C27.753 59.653 27.753 59.653 27.766 59.7232C27.7747 59.8468 27.7631 59.8988 27.6973 60.0001C27.5716 59.7911 27.487 59.5836 27.4103 59.3509C27.3988 59.3162 27.3872 59.2807 27.3749 59.2446C27.3518 59.1738 27.3287 59.1029 27.3055 59.0313C27.278 58.9489 27.2499 58.8665 27.2209 58.7848C26.7626 57.4106 26.725 55.9264 26.8009 54.49C26.8031 54.4596 26.8045 54.4286 26.806 54.3968C26.8335 53.8936 26.8898 53.4035 26.9853 52.9083C27.0019 52.8201 27.0164 52.7319 27.0294 52.6437C27.1964 51.5449 27.5383 50.4872 27.9287 49.4542C27.9453 49.4079 27.9626 49.3617 27.98 49.314C28.121 48.933 28.2807 48.5701 28.46 48.2065C28.5424 48.0387 28.6212 47.8703 28.6978 47.699C28.8446 47.3708 29.0116 47.0635 29.1981 46.757C29.261 46.6515 29.321 46.5445 29.381 46.4368C29.4764 46.2676 29.5784 46.1057 29.6861 45.9438C29.7396 45.8592 29.7873 45.7731 29.8335 45.6842C29.9232 45.5151 30.0273 45.3611 30.1364 45.2057C30.2152 45.09 30.2854 44.97 30.3548 44.8478C30.3678 44.8297 30.3815 44.8117 30.3945 44.7929C30.4205 44.7929 30.4459 44.7929 30.4719 44.7929C30.4777 44.7683 30.4827 44.7437 30.4885 44.7191C30.5102 44.6346 30.5102 44.6346 30.5492 44.5558C30.5745 44.5558 30.5998 44.5558 30.6259 44.5558C30.636 44.5276 30.6454 44.4994 30.6555 44.4705C30.7075 44.3476 30.7719 44.2529 30.85 44.1459C30.9432 44.0179 31.0343 43.89 31.1225 43.7584C31.1492 43.7215 31.176 43.6854 31.2042 43.6471C31.2295 43.6471 31.2548 43.6471 31.2815 43.6471C31.2902 43.6203 31.2989 43.5936 31.3076 43.5654C31.3712 43.4208 31.4558 43.3058 31.5512 43.1808C31.5685 43.1569 31.5859 43.1338 31.604 43.1092C31.6481 43.0499 31.6958 42.9928 31.7435 42.9364C31.7688 42.9364 31.7948 42.9364 31.8208 42.9364C31.836 42.8909 31.836 42.8909 31.8519 42.8453C31.8967 42.742 31.9336 42.695 32.0131 42.6205C32.0391 42.5815 32.0645 42.5424 32.0905 42.502C32.1158 42.502 32.1411 42.502 32.1678 42.502C32.1772 42.4796 32.1866 42.4579 32.1967 42.4347C32.2864 42.2648 32.4158 42.1232 32.5372 41.9757C32.5755 41.9287 32.6139 41.8824 32.6515 41.8352C32.7143 41.7585 32.7765 41.6821 32.8394 41.6058C32.8597 41.581 32.8799 41.5564 32.9001 41.531C32.95 41.4713 33.0013 41.4136 33.0541 41.3564C33.0794 41.3564 33.1047 41.3564 33.1307 41.3564C33.1394 41.3279 33.1488 41.2993 33.1575 41.27C33.2189 41.1352 33.2956 41.0643 33.4011 40.9614C33.443 40.9124 33.485 40.863 33.5262 40.8132C33.6577 40.6568 33.7987 40.5122 33.9433 40.3681C34.0235 40.288 34.0235 40.288 34.0944 40.1714C34.1197 40.1714 34.1457 40.1714 34.1717 40.1714C34.1869 40.1362 34.1869 40.1362 34.2028 40.1002C34.2491 40.0125 34.2954 39.9571 34.3648 39.8881C34.3879 39.8651 34.4103 39.8421 34.4342 39.8184C34.458 39.7947 34.4819 39.7711 34.5064 39.7468C34.6467 39.6072 34.784 39.4678 34.9106 39.3153C35.066 39.1325 35.2315 38.9624 35.3992 38.7921C35.447 38.7435 35.447 38.7435 35.4954 38.694C35.5959 38.5914 35.6964 38.4889 35.7976 38.3865C35.9306 38.2511 36.0636 38.1156 36.1966 37.9799C36.227 37.9491 36.2573 37.9183 36.2884 37.8865C36.4272 37.7453 36.5573 37.6051 36.6766 37.4459C36.7265 37.3985 36.7778 37.3523 36.8306 37.3076C36.9492 37.2046 37.0424 37.0971 37.1393 36.9719C37.1646 36.9719 37.1899 36.9719 37.2159 36.9719C37.2304 36.9353 37.2304 36.9353 37.2448 36.8978C37.3019 36.798 37.3482 36.7855 37.4473 36.7349C37.474 36.6826 37.4993 36.6299 37.5246 36.5769C37.5868 36.5094 37.6511 36.4437 37.7169 36.3794C37.7487 36.346 37.7805 36.3126 37.8138 36.2782C37.9099 36.1819 37.9099 36.1819 38.0082 36.1029C38.1073 36.0255 38.1073 36.0255 38.1868 35.9153C38.2099 35.886 38.2331 35.8566 38.2569 35.8264C38.2822 35.8264 38.3075 35.8264 38.3335 35.8264C38.348 35.7897 38.348 35.7897 38.3625 35.7524C38.4196 35.6524 38.4658 35.64 38.5649 35.5894C38.5779 35.5633 38.5902 35.5373 38.6032 35.5104C38.6523 35.4106 38.7008 35.4012 38.7962 35.3524C38.8085 35.3263 38.8215 35.3002 38.8345 35.2734C38.8837 35.1735 38.9321 35.1642 39.0275 35.1154C39.0543 35.0634 39.0803 35.0106 39.1042 34.9574C39.1548 34.9038 39.2068 34.8513 39.2589 34.7994C39.303 34.7479 39.3471 34.696 39.3912 34.6438C39.5242 34.4871 39.6651 34.3418 39.8104 34.197C39.9254 34.0761 40.0338 33.9504 40.1423 33.823C40.2305 33.7236 40.3223 33.63 40.4148 33.5354C40.6808 33.2517 40.9367 32.9619 41.1767 32.6545C41.27 32.5384 41.369 32.4283 41.4695 32.3183C41.6813 32.0855 41.8722 31.8379 42.0616 31.5857C42.1585 31.4572 42.259 31.331 42.3587 31.2044C42.4072 31.141 42.452 31.0745 42.4961 31.0074C42.5214 31.0074 42.5467 31.0074 42.5727 31.0074C42.5821 30.9789 42.5922 30.9504 42.6016 30.921C42.6551 30.7983 42.7216 30.7171 42.804 30.6124C42.8366 30.5659 42.8691 30.5191 42.9009 30.4721C42.9175 30.4478 42.9342 30.4236 42.9508 30.3985C42.9855 30.3479 43.0195 30.2972 43.0534 30.2464C43.0968 30.1826 43.1431 30.1209 43.1893 30.0594C43.2146 30.0594 43.2407 30.0594 43.2667 30.0594C43.2761 30.0252 43.2848 29.9909 43.2949 29.9555C43.3484 29.8089 43.4178 29.7105 43.5125 29.5879C43.6224 29.4443 43.7192 29.3024 43.806 29.1423C43.871 29.0237 43.9433 28.9098 44.0156 28.7954C44.0308 28.7712 44.046 28.747 44.0619 28.7221C44.1393 28.5995 44.218 28.4786 44.3026 28.3609C44.3821 28.2456 44.4385 28.1318 44.5 28.0054C44.5419 27.9302 44.5846 27.8553 44.6272 27.7807C44.8318 27.4239 45.019 27.0612 45.1976 26.6903C45.2641 26.5528 45.3328 26.4205 45.4152 26.2921C45.5041 26.153 45.5612 26.0079 45.619 25.8527C45.6769 25.6985 45.7434 25.5487 45.8099 25.3984C45.8251 25.3643 45.8403 25.3301 45.8562 25.2949C45.9906 24.9911 45.9906 24.9911 46.0528 24.855C46.1656 24.6058 46.261 24.354 46.3499 24.0949C46.4077 23.9309 46.4692 23.7684 46.5335 23.6067C46.6347 23.3486 46.7237 23.0864 46.8118 22.8235C46.8249 22.7855 46.8249 22.7855 46.8379 22.7467C46.947 22.4227 47.0482 22.0995 47.1285 21.7666C47.1588 21.6457 47.1957 21.5294 47.2362 21.4114C47.3193 21.1599 47.383 20.9047 47.4422 20.6465C47.461 20.5677 47.4791 20.4891 47.4979 20.4104C47.6367 19.8225 47.7654 19.2357 47.8593 18.6382C47.8796 18.5114 47.9035 18.3867 47.9316 18.2616C47.9656 18.1089 47.9859 17.958 48.0018 17.8021C48.0278 17.5497 48.0625 17.2991 48.0994 17.0481C48.1883 16.4407 48.2468 15.8349 48.2859 15.2222C48.2895 15.1735 48.2924 15.1248 48.296 15.0745C48.3871 13.6783 48.3936 12.2823 48.2866 10.8869C48.2765 10.7457 48.2685 10.6046 48.2613 10.4633C48.2244 9.80719 48.1355 9.16951 48.03 8.52214C48.0061 8.36903 47.9859 8.21606 47.9671 8.0623C47.9396 7.84759 47.9049 7.63874 47.855 7.42845C47.8051 7.2102 47.7603 6.99246 47.7227 6.77176C47.5919 6.04429 47.4025 5.32998 47.1972 4.62146C47.1776 4.55271 47.1581 4.48396 47.1386 4.41514C46.9666 3.81939 46.7743 3.23346 46.5632 2.65109C46.553 2.6226 46.5429 2.59419 46.5321 2.56484C46.509 2.50246 46.4837 2.44086 46.4576 2.37949C46.4236 2.28211 46.4179 2.20649 46.4193 2.10334C46.42 2.07261 46.42 2.04182 46.42 2.01015C46.4265 1.93548 46.4265 1.93548 46.4656 1.89593Z" fill="var(--fill-0, white)"/>
<path id="Vector_11" d="M0.0268178 25.5169C0.270656 25.6448 0.34345 25.8189 0.45073 26.07C0.484201 26.1452 0.517743 26.2205 0.551286 26.2957C0.567118 26.3319 0.583026 26.368 0.599364 26.4052C0.669631 26.5636 0.746185 26.7182 0.822814 26.8734C0.857875 26.9444 0.89236 27.0158 0.926409 27.0872C1.08711 27.4235 1.26444 27.7494 1.44329 28.0758C1.50907 28.1962 1.57413 28.3171 1.63905 28.438C1.69891 28.546 1.76383 28.6504 1.82875 28.7552C1.87798 28.8372 1.9233 28.9207 1.96812 29.0053C2.15991 29.362 2.38452 29.6968 2.61238 30.03C2.70788 30.1706 2.79318 30.3122 2.87473 30.462C2.95931 30.6044 3.0624 30.7333 3.16281 30.8642C3.29235 31.0336 3.41843 31.2026 3.53301 31.383C3.64933 31.5647 3.78025 31.7301 3.91673 31.8962C3.96466 31.9551 4.01252 32.014 4.06038 32.073C4.08279 32.1007 4.10527 32.1283 4.1284 32.1569C4.19925 32.2448 4.26799 32.3341 4.3358 32.4245C4.62865 32.8134 4.93987 33.1733 5.2701 33.529C5.358 33.6237 5.44533 33.7188 5.53085 33.816C5.80332 34.1252 6.0888 34.4206 6.37594 34.7155C6.3969 34.7371 6.41786 34.7587 6.43948 34.7809C6.65028 34.9978 6.86144 35.2124 7.08866 35.4114C7.19753 35.5071 7.30191 35.6077 7.4068 35.708C7.77122 36.0544 7.77123 36.0544 8.16312 36.3671C8.36221 36.5129 8.54626 36.6718 8.73082 36.8359C9.03748 37.1297 9.03748 37.1297 9.38491 37.3618C9.48424 37.4148 9.56687 37.4792 9.65528 37.5497C9.70827 37.5915 9.70827 37.5915 9.76234 37.6342C9.83629 37.693 9.91025 37.7519 9.9842 37.8107C10.0196 37.8386 10.0549 37.8665 10.0913 37.8953C10.1394 37.9336 10.1394 37.9336 10.1886 37.9727C10.2682 38.0313 10.3442 38.0741 10.4321 38.1174C10.5187 38.18 10.6045 38.2432 10.6898 38.3076C10.8665 38.4391 11.042 38.5582 11.2358 38.6621C11.3334 38.7186 11.4225 38.7835 11.5135 38.8507C11.65 38.9508 11.7839 39.0311 11.9355 39.104C12.0225 39.1499 12.1003 39.2036 12.1808 39.2605C12.325 39.3613 12.4711 39.4412 12.6282 39.5188C12.7456 39.5796 12.8595 39.6449 12.9739 39.7116C13.523 40.0311 14.0935 40.3061 14.6713 40.5664C14.7275 40.592 14.7837 40.6175 14.8399 40.643C14.8686 40.656 14.8973 40.669 14.9269 40.6825C14.9903 40.7117 15.0536 40.7413 15.1166 40.7713C15.342 40.8785 15.5694 40.9746 15.8018 41.0647C15.9673 41.1289 16.1322 41.1944 16.2971 41.2601C16.3272 41.2721 16.3573 41.2841 16.3883 41.2964C16.537 41.3556 16.6848 41.4164 16.8318 41.4798C17.0745 41.5796 17.3268 41.6488 17.5779 41.7222C17.687 41.7543 17.7959 41.7871 17.9049 41.82C17.9445 41.8319 17.9842 41.8438 18.0251 41.8564C18.1019 41.8795 18.1788 41.9027 18.2557 41.9258C18.7601 42.0769 19.2676 42.2099 19.7808 42.3263C19.869 42.3465 19.9572 42.3668 20.0454 42.387C20.649 42.5251 21.2556 42.6299 21.8686 42.7167C21.8975 42.721 21.9264 42.7246 21.9561 42.729C22.6472 42.8273 23.3412 42.9032 24.0359 42.9762C24.0359 43.0022 24.0359 43.0283 24.0359 43.055C23.9838 43.1013 23.9838 43.1013 23.9108 43.1519C23.8841 43.1707 23.8573 43.1895 23.8298 43.209C23.8017 43.2278 23.7735 43.2473 23.7445 43.2675C23.7041 43.2957 23.7041 43.2957 23.6621 43.3246C23.5385 43.4107 23.4156 43.4931 23.2848 43.5675C23.1207 43.6608 22.9725 43.775 22.8221 43.8892C22.0168 44.4921 22.0168 44.4921 21.6091 44.709C21.523 44.7553 21.523 44.7553 21.4225 44.8384C21.2722 44.9281 21.2093 44.9216 21.0394 44.8941C21.0141 44.8897 20.9881 44.8861 20.9613 44.8818C20.8681 44.8666 20.7755 44.85 20.683 44.8326C20.6454 44.8254 20.6078 44.8189 20.5688 44.8117C19.5654 44.6288 18.588 44.362 17.6169 44.0454C17.5073 44.01 17.3975 43.9767 17.2871 43.9435C16.6457 43.7468 16.0189 43.4815 15.4035 43.2126C15.3727 43.1996 15.3419 43.1866 15.3102 43.1721C15.2031 43.1258 15.0962 43.0796 14.9892 43.0326C14.955 43.0181 14.9208 43.0029 14.8855 42.9878C14.7057 42.909 14.5292 42.8266 14.3549 42.7355C14.2562 42.6841 14.1555 42.6379 14.0546 42.5909C13.65 42.4 13.2495 42.2034 12.8705 41.9627C12.7821 41.9092 12.6924 41.8622 12.5998 41.8156C12.2375 41.634 11.8891 41.4214 11.5497 41.1984C11.5156 41.1765 11.4815 41.1545 11.4464 41.1319C11.2887 41.03 11.1318 40.9285 10.9812 40.8158C10.8594 40.7232 10.8594 40.7232 10.7331 40.6553C10.5563 40.5555 10.4009 40.4252 10.2418 40.2986C10.1394 40.2226 10.0358 40.1607 9.92558 40.0979C9.78729 40.011 9.66526 39.9025 9.54091 39.7962C9.48778 39.7514 9.43472 39.7065 9.38159 39.6616C9.2991 39.5917 9.21662 39.5218 9.13413 39.4518C9.04673 39.38 9.04674 39.38 8.95182 39.3257C8.8248 39.2458 8.71571 39.1485 8.60395 39.0482C8.55566 39.0052 8.50737 38.9622 8.45908 38.9193C8.43464 38.8975 8.41021 38.8757 8.38498 38.8532C8.31724 38.7931 8.24892 38.7337 8.18032 38.6746C7.938 38.4655 7.70226 38.2506 7.47173 38.0279C7.44353 38.0008 7.41534 37.9735 7.38628 37.9455C7.08815 37.6561 6.79681 37.36 6.50693 37.062C6.41815 36.9708 6.32916 36.8797 6.24017 36.7888C6.18255 36.7297 6.12494 36.6706 6.06732 36.6115C6.0413 36.5849 6.0152 36.5583 5.98838 36.5308C5.83924 36.3772 5.6969 36.2195 5.55897 36.0551C5.46644 35.9457 5.36943 35.8407 5.27277 35.7351C5.09674 35.5413 4.93004 35.342 4.76832 35.1354C4.67521 35.018 4.57769 34.9053 4.47822 34.7936C4.42017 34.7205 4.42017 34.7205 4.36862 34.6306C4.28455 34.4894 4.18472 34.3647 4.08293 34.2366C4.04144 34.1839 4.00001 34.1312 3.95859 34.0785C3.93856 34.0531 3.91861 34.0277 3.89801 34.0015C3.82593 33.9099 3.75422 33.818 3.68309 33.7255C3.66314 33.6997 3.64318 33.6739 3.62258 33.6473C3.57227 33.5749 3.57227 33.5749 3.53843 33.503C3.47518 33.377 3.39147 33.2666 3.30978 33.1528C3.18139 32.9716 3.06522 32.7917 2.96365 32.593C2.90914 32.494 2.8469 32.4034 2.78227 32.3109C2.67672 32.1596 2.58578 32.0063 2.49997 31.8425C2.45638 31.7611 2.40961 31.6831 2.36074 31.6049C2.24117 31.411 2.13613 31.2097 2.0308 31.0075C2.01106 30.9697 2.01106 30.9697 1.99097 30.9313C1.46801 29.9294 1.46801 29.9294 1.26675 29.4189C1.22461 29.3166 1.17784 29.2195 1.12752 29.1213C1.0201 28.9058 0.940506 28.6811 0.859613 28.4541C0.795201 28.2738 0.72652 28.0953 0.657843 27.9166C0.570154 27.6869 0.486807 27.4569 0.413214 27.2219C0.38278 27.1257 0.351114 27.0304 0.318366 26.9349C0.21311 26.6252 0.119567 26.316 0.0485043 25.9959C0.0417089 25.9661 0.0349111 25.9363 0.0278988 25.9056C-0.00253578 25.7612 -0.0148219 25.6579 0.0268178 25.5169Z" fill="var(--fill-0, white)"/>
<path id="Vector_12" d="M40.8774 30.4149C41.0039 30.4739 41.1058 30.5488 41.2143 30.6372C41.2454 30.6621 41.2757 30.6871 41.3075 30.7128C41.3307 30.7318 41.3545 30.7508 41.3784 30.7705C41.3256 30.9299 41.2569 31.0289 41.1449 31.1507C41.0191 31.2895 40.8991 31.4302 40.7834 31.5778C40.6309 31.7712 40.4704 31.9545 40.3056 32.1368C40.234 32.2184 40.169 32.301 40.1068 32.3899C39.9817 32.3329 39.8899 32.2613 39.7887 32.1678C39.7612 32.1428 39.7338 32.1179 39.7063 32.0922C39.6853 32.0732 39.6651 32.0541 39.6441 32.0345C39.6665 31.9128 39.6991 31.843 39.7793 31.7509C39.7995 31.7275 39.8198 31.7041 39.8408 31.68C39.8624 31.6552 39.8841 31.6305 39.9065 31.6049C39.9521 31.5519 39.9976 31.4989 40.0432 31.4458C40.067 31.4189 40.0902 31.392 40.114 31.3643C40.221 31.2406 40.3266 31.1156 40.4314 30.9902C40.4603 30.9559 40.4603 30.9559 40.4899 30.921C40.6258 30.7573 40.7545 30.5897 40.8774 30.4149Z" fill="var(--fill-0, white)"/>
<path id="Vector_13" d="M46.1571 19.1572C46.2236 19.163 46.2901 19.1688 46.3573 19.1745C46.413 19.1793 46.413 19.1793 46.4694 19.1843C46.5727 19.1958 46.6725 19.2136 46.7737 19.2362C46.7528 19.5488 46.6949 19.8472 46.627 20.1522C46.6168 20.1989 46.606 20.2457 46.5959 20.2939C46.5214 20.6283 46.4412 20.9604 46.3501 21.2902C46.2829 21.279 46.2164 21.2674 46.1499 21.2557C46.113 21.2493 46.0754 21.2428 46.0378 21.2362C45.9294 21.212 45.8354 21.1756 45.7335 21.1322C45.7421 21.092 45.7508 21.0519 45.7595 21.0105C45.7927 20.8587 45.8253 20.7069 45.8585 20.555C45.873 20.4899 45.8867 20.4247 45.9012 20.3595C45.9879 19.9591 46.0739 19.5585 46.1571 19.1572Z" fill="var(--fill-0, white)"/>
<path id="Vector_14" d="M42.7275 27.8869C42.9111 27.9517 43.0658 28.0553 43.2285 28.1633C43.2104 28.3599 43.1107 28.4862 42.9972 28.6373C42.9581 28.6902 42.9191 28.743 42.8808 28.7959C42.8613 28.8224 42.8417 28.8488 42.8215 28.876C42.7398 28.9887 42.6625 29.1041 42.5851 29.22C42.4311 29.4502 42.2721 29.6764 42.1109 29.9013C41.9735 29.8506 41.8665 29.7908 41.7516 29.6989C41.7248 29.6776 41.6981 29.6563 41.6699 29.6344C41.6504 29.6183 41.6301 29.6021 41.6099 29.5854C41.633 29.4631 41.6699 29.3839 41.7422 29.2841C41.7624 29.2566 41.782 29.229 41.8022 29.2007C41.8239 29.1712 41.8448 29.1417 41.8673 29.1113C41.9128 29.0481 41.9576 28.9848 42.0032 28.9214C42.027 28.8882 42.0509 28.855 42.0755 28.8208C42.2258 28.6076 42.3718 28.391 42.5186 28.1747C42.5403 28.1428 42.562 28.1109 42.5844 28.078C42.6039 28.0497 42.6227 28.0213 42.6429 27.9921C42.6885 27.9263 42.6885 27.9263 42.7275 27.8869Z" fill="var(--fill-0, white)"/>
<path id="Vector_15" d="M45.4246 22.1989C45.622 22.2411 45.8128 22.287 46.003 22.3569C45.9806 22.5141 45.948 22.6571 45.8952 22.8066C45.8815 22.8467 45.8678 22.8867 45.8533 22.9279C45.8381 22.97 45.823 23.0122 45.8078 23.0555C45.7926 23.0989 45.7767 23.1423 45.7615 23.187C45.6227 23.5742 45.4702 23.9542 45.309 24.3319C45.0943 24.3015 44.9251 24.228 44.7306 24.1344C44.8181 23.8607 44.9135 23.5914 45.0126 23.3221C45.0436 23.2386 45.074 23.155 45.1051 23.0714C45.1196 23.0307 45.1347 22.99 45.1499 22.9481C45.2106 22.784 45.2706 22.6198 45.3306 22.4557C45.3494 22.405 45.3675 22.3544 45.3863 22.3038C45.3986 22.2691 45.4116 22.2345 45.4246 22.1989Z" fill="var(--fill-0, white)"/>
<path id="Vector_16" d="M46.6195 9.63784C46.7113 10.0821 46.7923 10.5272 46.8602 10.9759C46.8667 11.0198 46.8739 11.0636 46.8805 11.1088C46.887 11.1504 46.8927 11.192 46.8992 11.2348C46.905 11.2716 46.9101 11.3083 46.9159 11.3462C46.9282 11.4608 46.9274 11.5766 46.9274 11.6918C46.6224 11.731 46.6224 11.731 46.3108 11.7709C46.3007 11.7045 46.3007 11.7045 46.2906 11.6368C46.2653 11.4721 46.24 11.3073 46.2139 11.1426C46.2031 11.0714 46.1922 11.0002 46.1814 10.929C46.1655 10.8264 46.1496 10.7239 46.1344 10.6214C46.1293 10.5898 46.1243 10.5581 46.1192 10.5256C46.099 10.3953 46.0787 10.2652 46.0571 10.1352C46.0354 9.9938 46.039 9.85984 46.0412 9.71685C46.1012 9.70348 46.1619 9.69032 46.2219 9.67738C46.2551 9.67001 46.2891 9.66271 46.3231 9.65512C46.4243 9.63827 46.5176 9.63488 46.6195 9.63784Z" fill="var(--fill-0, white)"/>
<path id="Vector_17" d="M45.7718 6.47802C45.8708 6.57945 45.8867 6.66432 45.9265 6.80174C45.9337 6.82625 45.941 6.85075 45.9482 6.87598C45.9713 6.95558 45.9944 7.03524 46.0176 7.11498C46.0328 7.16927 46.0487 7.22363 46.0646 7.27799C46.3494 8.26947 46.3494 8.26947 46.3494 8.53203C46.1585 8.57114 45.9684 8.61025 45.7718 8.65052C45.7552 8.59312 45.7385 8.53565 45.7219 8.47651C45.7111 8.43856 45.7002 8.40061 45.6894 8.3615C45.6655 8.27699 45.6409 8.19248 45.6171 8.10797C45.5535 7.88257 45.4884 7.65738 45.4226 7.4327C45.4096 7.38976 45.3973 7.34682 45.3843 7.30257C45.3605 7.21966 45.3359 7.13681 45.3106 7.05404C45.2997 7.01645 45.2889 6.97885 45.278 6.94018C45.2679 6.90707 45.2585 6.87403 45.2484 6.83998C45.2318 6.75453 45.2318 6.75453 45.2708 6.63605C45.3836 6.58993 45.3836 6.58993 45.5238 6.54959C45.5694 6.536 45.6156 6.52241 45.6634 6.50846C45.6988 6.49841 45.7349 6.48836 45.7718 6.47802Z" fill="var(--fill-0, white)"/>
<path id="Vector_18" d="M38.8346 32.7849C39.1599 33.0279 39.1599 33.0279 39.2973 33.1799C39.2351 33.3418 39.1209 33.447 39.0009 33.565C38.844 33.7227 38.6944 33.8827 38.5512 34.0542C38.3546 34.2829 38.1377 34.4863 37.91 34.6809C37.79 34.626 37.7032 34.5618 37.6085 34.4686C37.5847 34.4455 37.5608 34.4223 37.5355 34.3986C37.4856 34.3254 37.4856 34.3254 37.495 34.2501C37.529 34.1539 37.5695 34.107 37.6411 34.0353C37.6649 34.0104 37.6895 33.9855 37.7148 33.9598C37.7416 33.9334 37.7676 33.9069 37.7951 33.8797C37.8225 33.8521 37.8493 33.8246 37.8775 33.7962C37.9642 33.7081 38.0517 33.6205 38.1384 33.533C38.2259 33.4452 38.3127 33.3573 38.3994 33.2693C38.4536 33.2146 38.5078 33.16 38.5621 33.1055C38.5866 33.0807 38.6112 33.0559 38.6365 33.0304C38.6582 33.0087 38.6792 32.9869 38.7016 32.9646C38.7659 32.8977 38.7659 32.8977 38.8346 32.7849Z" fill="var(--fill-0, white)"/>
<path id="Vector_19" d="M36.6376 35.0366C36.7287 35.1148 36.8184 35.194 36.908 35.2735C36.9398 35.3012 36.9716 35.3289 37.0041 35.3575C37.062 35.4316 37.062 35.4316 37.0584 35.5031C37.007 35.629 36.9253 35.6924 36.8256 35.7821C36.7837 35.8204 36.7417 35.8588 36.6998 35.8972C36.6774 35.9176 36.655 35.938 36.6318 35.9589C36.5068 36.074 36.3846 36.1924 36.2624 36.3104C36.1692 36.3994 36.0759 36.4883 35.9827 36.577C35.9328 36.6249 35.9328 36.6249 35.8815 36.6736C35.841 36.7113 35.841 36.7113 35.7998 36.7499C35.7665 36.7809 35.7665 36.7809 35.7325 36.8125C35.6747 36.8535 35.6747 36.8535 35.559 36.8535C35.4911 36.8 35.4911 36.8 35.4217 36.7276C35.3986 36.7043 35.3754 36.6809 35.3516 36.6568C35.2829 36.5687 35.2482 36.4858 35.2121 36.3795C35.6574 35.9589 35.6574 35.9589 35.8215 35.8142C36.1012 35.5655 36.3759 35.3052 36.6376 35.0366Z" fill="var(--fill-0, white)"/>
<path id="Vector_20" d="M44.2687 25.1219C44.3439 25.154 44.4198 25.1861 44.495 25.2182C44.5369 25.2361 44.5789 25.254 44.6222 25.2724C44.6851 25.2995 44.7473 25.3278 44.808 25.3589C44.743 25.5962 44.6309 25.806 44.5188 26.023C44.4986 26.0629 44.4784 26.1028 44.4574 26.1439C44.3266 26.3969 44.1928 26.6473 44.0518 26.8945C44.0359 26.9227 44.02 26.9508 44.0034 26.9798C43.8928 27.171 43.8928 27.171 43.8061 27.2154C43.6976 27.1588 43.6976 27.1588 43.5704 27.0796C43.5277 27.0536 43.4858 27.0276 43.4424 27.0008C43.4099 26.9803 43.3774 26.96 43.3434 26.9389C43.3658 26.7971 43.4012 26.692 43.4721 26.5684C43.4909 26.5357 43.5097 26.5029 43.5285 26.4691C43.5487 26.4343 43.5689 26.3996 43.5892 26.3637C43.6311 26.2899 43.673 26.216 43.715 26.1421C43.7367 26.1043 43.7576 26.0665 43.78 26.0275C43.8841 25.8415 43.9853 25.6534 44.0858 25.465C44.1039 25.4306 44.1227 25.3962 44.1415 25.3607C44.1841 25.2812 44.2261 25.2015 44.2687 25.1219Z" fill="var(--fill-0, white)"/>
<path id="Vector_21" d="M46.8222 12.8348C46.8634 12.8351 46.9046 12.8355 46.9479 12.8359C46.979 12.8363 47.0108 12.8368 47.0434 12.8372C47.0708 13.0759 47.0918 13.3132 47.1034 13.5532C47.1055 13.5864 47.107 13.6195 47.1084 13.6537C47.1272 14.066 47.1236 14.4785 47.1207 14.8912C46.9168 14.8912 46.7137 14.8912 46.5041 14.8912C46.4788 14.2264 46.4527 13.5617 46.4267 12.8768C46.5691 12.8403 46.6768 12.8332 46.8222 12.8348Z" fill="var(--fill-0, white)"/>
<path id="Vector_22" d="M46.4656 15.9973C46.6688 16.0104 46.8726 16.0234 47.0823 16.0368C47.0881 16.4115 47.0686 16.7773 47.0346 17.1498C47.0266 17.2399 47.0187 17.3301 47.0107 17.4201C46.9898 17.6587 46.9666 17.8938 46.9276 18.1303C46.7244 18.1042 46.5206 18.0782 46.3109 18.0513C46.3189 17.9792 46.3268 17.907 46.3355 17.8327C46.4006 17.2208 46.4483 16.6129 46.4656 15.9973Z" fill="var(--fill-0, white)"/>
<path id="Vector_23" d="M45.0785 4.46354C45.179 4.61904 45.2339 4.78264 45.2975 4.95729C45.3098 4.99156 45.3228 5.02582 45.3366 5.0611C45.3539 5.11055 45.3539 5.11055 45.3727 5.16094C45.3835 5.19101 45.3944 5.22108 45.406 5.25209C45.4248 5.33255 45.4248 5.33255 45.3864 5.45104C45.2939 5.49716 45.2939 5.49716 45.179 5.53743C45.1414 5.55102 45.1038 5.56461 45.0655 5.57863C44.9628 5.60907 44.9628 5.60907 44.8471 5.60907C44.8059 5.50721 44.7662 5.40521 44.7264 5.30291C44.7149 5.27407 44.7033 5.2453 44.691 5.21559C44.6093 5.00139 44.6093 5.00139 44.6389 4.88659C44.6982 4.8122 44.7582 4.74295 44.8255 4.67586C44.8479 4.65251 44.871 4.62923 44.8949 4.60516C44.9628 4.54255 44.9628 4.54255 45.0785 4.46354Z" fill="var(--fill-0, white)"/>
<path id="Vector_24" d="M34.3641 37.1693C34.5188 37.287 34.6388 37.4038 34.7494 37.5643C34.7443 37.6824 34.7118 37.7213 34.6316 37.8069C34.5839 37.8481 34.5838 37.8481 34.5354 37.8902C34.5036 37.9181 34.4718 37.946 34.4385 37.9748C34.414 37.9957 34.3894 38.0167 34.3641 38.0383C34.2231 37.979 34.145 37.8947 34.046 37.7766C34.0193 37.7444 33.9918 37.7121 33.9636 37.6788C33.9433 37.6541 33.9231 37.6293 33.9014 37.6038C34.0482 37.449 34.2029 37.308 34.3641 37.1693Z" fill="var(--fill-0, white)"/>
<path id="Vector_25" d="M43.2075 49.079C43.0831 48.6987 42.9198 48.3582 42.7159 48.0568C42.5164 47.7517 42.2778 47.4922 41.9988 47.2775C41.7241 47.0628 41.4118 46.8987 41.0612 46.7859C40.7113 46.6731 40.3274 46.6168 39.9088 46.6168C39.2242 46.6168 38.6011 46.7939 38.0401 47.1474C37.4791 47.5016 37.0324 48.0228 36.7013 48.7118C36.3702 49.4007 36.2046 50.2465 36.2046 51.2477C36.2046 52.249 36.3716 53.0948 36.7071 53.7837C37.0418 54.4726 37.4958 54.9939 38.0683 55.3481C38.6401 55.7016 39.2843 55.8787 39.9999 55.8787C40.6621 55.8787 41.2455 55.7377 41.7501 55.4551C42.259 55.1688 42.6537 54.7661 42.9364 54.2464C43.2227 53.723 43.3658 53.1078 43.3658 52.4001L43.7952 52.4904H40.3158V51.2477H44.7213V52.4904C44.7213 53.4425 44.5181 54.2709 44.1111 54.9751C43.7085 55.6792 43.1511 56.225 42.439 56.6132C41.7313 56.997 40.918 57.1893 39.9999 57.1893C38.9756 57.1893 38.0755 56.9479 37.2999 56.4664C36.5278 55.9842 35.9256 55.2989 35.4926 54.4105C35.0632 53.522 34.8492 52.4673 34.8492 51.2477C34.8492 50.3325 34.9714 49.5098 35.2157 48.7797C35.4644 48.0452 35.8143 47.4206 36.2661 46.9045C36.7179 46.389 37.2529 45.9936 37.8702 45.7189C38.4876 45.4435 39.1671 45.3061 39.9088 45.3061C40.519 45.3061 41.0879 45.3986 41.6149 45.583C42.1455 45.7637 42.6183 46.0218 43.0325 46.3565C43.4504 46.6883 43.7988 47.0852 44.0772 47.5486C44.3562 48.0076 44.5478 48.518 44.6533 49.079H43.2075ZM46.303 57.031V48.3561H47.5905V49.666H47.6809C47.8392 49.2373 48.1255 48.8889 48.5397 48.6214C48.9539 48.3539 49.4209 48.2202 49.94 48.2202C50.0383 48.2202 50.1605 48.2223 50.3072 48.226C50.454 48.2303 50.5653 48.2354 50.6405 48.2433V49.5988C50.5956 49.5872 50.4916 49.5706 50.3296 49.5474C50.172 49.5214 50.0043 49.5084 49.8272 49.5084C49.4057 49.5084 49.0291 49.5966 48.698 49.7737C48.3698 49.9472 48.1103 50.1879 47.918 50.4966C47.73 50.8017 47.6361 51.1501 47.6361 51.5412V57.031H46.303ZM54.1372 57.2342C53.5871 57.2342 53.0882 57.1308 52.6408 56.924C52.1926 56.7129 51.8369 56.41 51.573 56.0146C51.3092 55.6156 51.1776 55.1334 51.1776 54.5688C51.1776 54.0714 51.2759 53.6688 51.4711 53.3601C51.667 53.0478 51.9287 52.8027 52.2562 52.6256C52.5837 52.4485 52.9451 52.3169 53.3405 52.2302C53.7396 52.1398 54.1408 52.0682 54.5435 52.0162C55.0712 51.9482 55.4984 51.8969 55.8259 51.8636C56.157 51.8253 56.3985 51.7639 56.5488 51.6771C56.7028 51.5904 56.7802 51.44 56.7802 51.2253V51.1798C56.7802 50.6224 56.6276 50.1894 56.3226 49.8807C56.0218 49.572 55.5642 49.418 54.9505 49.418C54.3143 49.418 53.8155 49.5568 53.454 49.8359C53.0926 50.1142 52.8381 50.412 52.6914 50.728L51.4263 50.2761C51.6518 49.7491 51.9533 49.3385 52.3299 49.045C52.7102 48.7479 53.1244 48.5404 53.5726 48.424C54.0244 48.3033 54.4683 48.2433 54.9049 48.2433C55.184 48.2433 55.5042 48.2773 55.8657 48.3445C56.2307 48.4089 56.5828 48.5426 56.9211 48.7457C57.2638 48.9489 57.5486 49.2561 57.7742 49.666C58.0004 50.0766 58.1132 50.6267 58.1132 51.3157V57.031H56.7802V55.8563H56.7122C56.6218 56.0442 56.4715 56.2459 56.2604 56.4606C56.05 56.6753 55.7695 56.8575 55.4189 57.0086C55.069 57.159 54.6418 57.2342 54.1372 57.2342ZM54.3403 56.037C54.8673 56.037 55.3119 55.9336 55.6734 55.7262C56.0385 55.5194 56.3132 55.2519 56.4982 54.9245C56.6862 54.597 56.7802 54.2521 56.7802 53.8907V52.6711C56.7238 52.7384 56.5994 52.8005 56.4079 52.8577C56.2192 52.9097 56.0009 52.9574 55.7522 52.9986C55.5078 53.0362 55.2685 53.0702 55.035 53.0998C54.8052 53.1266 54.6194 53.149 54.4762 53.1678C54.1292 53.2133 53.8061 53.2863 53.5047 53.3883C53.2068 53.4859 52.9661 53.6348 52.7817 53.8343C52.601 54.0302 52.5106 54.2977 52.5106 54.636C52.5106 55.0994 52.682 55.4493 53.0246 55.6871C53.3709 55.9206 53.8097 56.037 54.3403 56.037ZM61.2427 51.8123V57.031H59.9096V48.3561H61.1971V49.7115H61.3107C61.5138 49.2713 61.8225 48.9171 62.2367 48.6496C62.6509 48.3785 63.1852 48.2433 63.8408 48.2433C64.4279 48.2433 64.9418 48.3633 65.3821 48.6048C65.8231 48.8419 66.1657 49.2033 66.4101 49.6891C66.6551 50.1706 66.7773 50.7807 66.7773 51.5188V57.031H65.4443V51.6092C65.4443 50.9275 65.2679 50.3969 64.9136 50.0166C64.5594 49.6327 64.0743 49.4404 63.4562 49.4404C63.0312 49.4404 62.6509 49.533 62.3155 49.7173C61.9844 49.9017 61.7227 50.1706 61.5304 50.5248C61.3388 50.879 61.2427 51.3077 61.2427 51.8123ZM71.8529 57.2118C71.13 57.2118 70.4916 57.0289 69.9379 56.6638C69.3841 56.2951 68.9518 55.7753 68.6388 55.1052C68.3265 54.4314 68.1704 53.6348 68.1704 52.716C68.1704 51.8051 68.3265 51.0142 68.6388 50.3441C68.9518 49.6739 69.3863 49.1563 69.9437 48.7913C70.501 48.4255 71.1444 48.2433 71.8753 48.2433C72.4399 48.2433 72.8859 48.3373 73.2134 48.5252C73.5452 48.7103 73.7975 48.9207 73.9703 49.1578C74.1474 49.3913 74.2848 49.5836 74.3831 49.7339H74.4958V45.4644H75.8289V57.031H74.5407V55.698H74.3831C74.2848 55.8563 74.1452 56.0558 73.9645 56.2965C73.7838 56.5337 73.5264 56.7469 73.191 56.9349C72.8563 57.1192 72.4095 57.2118 71.8529 57.2118ZM72.0336 56.0146C72.5678 56.0146 73.0197 55.8751 73.3891 55.5968C73.7577 55.3141 74.0382 54.9245 74.2305 54.4271C74.4221 53.9268 74.5182 53.3485 74.5182 52.6936C74.5182 52.0458 74.4243 51.4791 74.2356 50.9933C74.0476 50.5039 73.7693 50.1236 73.3999 49.8525C73.0312 49.5778 72.5758 49.4404 72.0336 49.4404C71.4683 49.4404 70.9977 49.5858 70.621 49.8756C70.2487 50.1612 69.9682 50.5508 69.7796 51.0446C69.5952 51.534 69.5034 52.0834 69.5034 52.6936C69.5034 53.3109 69.5974 53.8719 69.7853 54.3765C69.9776 54.8775 70.2596 55.2765 70.6326 55.5736C71.0092 55.8679 71.4762 56.0146 72.0336 56.0146ZM91.1438 49.079H89.7428C89.6604 48.6763 89.5151 48.3221 89.3083 48.017C89.1052 47.712 88.8565 47.4561 88.563 47.2493C88.2724 47.0382 87.9507 46.8799 87.5972 46.7743C87.243 46.6695 86.8743 46.6168 86.4897 46.6168C85.7899 46.6168 85.1552 46.7939 84.587 47.1474C84.0217 47.5016 83.572 48.0228 83.2366 48.7118C82.9055 49.4007 82.7399 50.2465 82.7399 51.2477C82.7399 52.249 82.9055 53.0948 83.2366 53.7837C83.572 54.4726 84.0217 54.9939 84.587 55.3481C85.1552 55.7016 85.7899 55.8787 86.4897 55.8787C86.8743 55.8787 87.243 55.8259 87.5972 55.7204C87.9507 55.6156 88.2724 55.4594 88.563 55.2519C88.8565 55.0408 89.1052 54.7835 89.3083 54.4784C89.5151 54.1697 89.6604 53.8155 89.7428 53.4165H91.1438C91.0382 54.0078 90.8459 54.5363 90.5676 55.0033C90.2893 55.4703 89.9423 55.8679 89.5281 56.1953C89.1146 56.5192 88.649 56.7657 88.1336 56.9349C87.621 57.1048 87.0738 57.1893 86.4897 57.1893C85.5036 57.1893 84.626 56.9479 83.8583 56.4664C83.0898 55.9842 82.4855 55.2989 82.0452 54.4105C81.605 53.522 81.3845 52.4673 81.3845 51.2477C81.3845 50.0275 81.605 48.9734 82.0452 48.085C82.4855 47.1965 83.0898 46.5112 83.8583 46.029C84.626 45.5476 85.5036 45.3061 86.4897 45.3061C87.0738 45.3061 87.621 45.3907 88.1336 45.5606C88.649 45.7297 89.1146 45.9784 89.5281 46.3059C89.9423 46.6298 90.2893 47.0252 90.5676 47.4922C90.8459 47.9549 91.0382 48.484 91.1438 49.079ZM93.9227 51.8123V57.031H92.5903V45.4644H93.9227V49.7115H94.0362C94.2393 49.2633 94.5444 48.9077 94.9506 48.6438C95.3612 48.377 95.907 48.2433 96.5887 48.2433C97.1801 48.2433 97.6977 48.3619 98.1416 48.599C98.5862 48.8325 98.931 49.1918 99.1753 49.6776C99.424 50.1597 99.5484 50.7735 99.5484 51.5188V57.031H98.2153V51.6092C98.2153 50.9202 98.0367 50.3875 97.6789 50.0108C97.3247 49.6306 96.8331 49.4404 96.2049 49.4404C95.7682 49.4404 95.3764 49.533 95.0302 49.7173C94.6875 49.9017 94.4164 50.1706 94.2169 50.5248C94.021 50.879 93.9227 51.3077 93.9227 51.8123ZM103.903 57.2342C103.354 57.2342 102.854 57.1308 102.407 56.924C101.959 56.7129 101.603 56.41 101.339 56.0146C101.076 55.6156 100.944 55.1334 100.944 54.5688C100.944 54.0714 101.042 53.6688 101.237 53.3601C101.433 53.0478 101.695 52.8027 102.022 52.6256C102.35 52.4485 102.712 52.3169 103.107 52.2302C103.506 52.1398 103.907 52.0682 104.309 52.0162C104.837 51.9482 105.264 51.8969 105.592 51.8636C105.923 51.8253 106.164 51.7639 106.315 51.6771C106.469 51.5904 106.546 51.44 106.546 51.2253V51.1798C106.546 50.6224 106.394 50.1894 106.089 49.8807C105.788 49.572 105.33 49.418 104.716 49.418C104.08 49.418 103.581 49.5568 103.22 49.8359C102.859 50.1142 102.604 50.412 102.457 50.728L101.192 50.2761C101.418 49.7491 101.719 49.3385 102.096 49.045C102.476 48.7479 102.89 48.5404 103.339 48.424C103.79 48.3033 104.234 48.2433 104.671 48.2433C104.95 48.2433 105.27 48.2773 105.632 48.3445C105.997 48.4089 106.349 48.5426 106.688 48.7457C107.03 48.9489 107.315 49.2561 107.54 49.666C107.766 50.0766 107.879 50.6267 107.879 51.3157V57.031H106.546V55.8563H106.478C106.388 56.0442 106.237 56.2459 106.026 56.4606C105.816 56.6753 105.536 56.8575 105.185 57.0086C104.835 57.159 104.408 57.2342 103.903 57.2342ZM104.106 56.037C104.633 56.037 105.078 55.9336 105.439 55.7262C105.804 55.5194 106.079 55.2519 106.264 54.9245C106.452 54.597 106.546 54.2521 106.546 53.8907V52.6711C106.49 52.7384 106.365 52.8005 106.174 52.8577C105.985 52.9097 105.767 52.9574 105.518 52.9986C105.274 53.0362 105.035 53.0702 104.801 53.0998C104.571 53.1266 104.385 53.149 104.242 53.1678C103.896 53.2133 103.572 53.2863 103.271 53.3883C102.974 53.4859 102.732 53.6348 102.548 53.8343C102.367 54.0302 102.277 54.2977 102.277 54.636C102.277 55.0994 102.448 55.4493 102.791 55.6871C103.137 55.9206 103.576 56.037 104.106 56.037ZM115.143 53.4844V48.3561H116.475V57.031H115.143V55.5628H115.053C114.849 56.003 114.533 56.3775 114.103 56.6862C113.674 56.9913 113.132 57.1438 112.477 57.1438C111.935 57.1438 111.453 57.0252 111.031 56.7881C110.61 56.5474 110.279 56.1859 110.037 55.7038C109.796 55.218 109.676 54.6064 109.676 53.8683V48.3561H111.009V53.7779C111.009 54.4105 111.186 54.9151 111.539 55.2917C111.897 55.6683 112.353 55.8563 112.906 55.8563C113.237 55.8563 113.574 55.7717 113.917 55.6018C114.264 55.4327 114.554 55.1731 114.787 54.8225C115.024 54.4726 115.143 54.0266 115.143 53.4844ZM122.144 48.3561V49.4853H117.467V48.3561H122.144ZM118.868 57.031V47.1589C118.868 46.6616 118.985 46.2473 119.218 45.9163C119.452 45.5852 119.754 45.3365 120.127 45.1709C120.501 45.0054 120.894 44.9222 121.308 44.9222C121.635 44.9222 121.903 44.9483 122.11 45.001C122.317 45.0538 122.471 45.103 122.573 45.1478L122.189 46.3001C122.121 46.2777 122.027 46.2495 121.907 46.2155C121.79 46.1816 121.635 46.1649 121.443 46.1649C121.003 46.1649 120.685 46.2755 120.489 46.4982C120.297 46.7201 120.201 47.0454 120.201 47.4748V57.031H118.868ZM127.239 48.3561V49.4853H122.562V48.3561H127.239ZM123.963 57.031V47.1589C123.963 46.6616 124.08 46.2473 124.313 45.9163C124.547 45.5852 124.85 45.3365 125.223 45.1709C125.595 45.0054 125.989 44.9222 126.403 44.9222C126.731 44.9222 126.998 44.9483 127.205 45.001C127.412 45.0538 127.566 45.103 127.668 45.1478L127.284 46.3001C127.216 46.2777 127.122 46.2495 127.002 46.2155C126.885 46.1816 126.731 46.1649 126.538 46.1649C126.098 46.1649 125.78 46.2755 125.584 46.4982C125.392 46.7201 125.296 47.0454 125.296 47.4748V57.031H123.963ZM131.75 57.2118C130.915 57.2118 130.193 57.0274 129.588 56.658C128.985 56.2857 128.52 55.7659 128.192 55.0994C127.868 54.4293 127.706 53.65 127.706 52.7615C127.706 51.873 127.868 51.0894 128.192 50.412C128.52 49.7303 128.975 49.1997 129.559 48.8195C130.146 48.4349 130.832 48.2433 131.615 48.2433C132.067 48.2433 132.513 48.3185 132.953 48.4689C133.394 48.6199 133.795 48.8643 134.156 49.2033C134.518 49.538 134.806 49.9826 135.02 50.5364C135.235 51.0894 135.343 51.7711 135.343 52.5808V53.1454H128.656V51.993H133.987C133.987 51.5036 133.889 51.067 133.694 50.6831C133.501 50.2985 133.227 49.9956 132.869 49.7737C132.515 49.5518 132.097 49.4404 131.615 49.4404C131.084 49.4404 130.625 49.572 130.237 49.8359C129.853 50.0954 129.557 50.4345 129.35 50.8523C129.143 51.2701 129.04 51.7183 129.04 52.1962V52.9646C129.04 53.6196 129.152 54.1748 129.379 54.631C129.608 55.0828 129.927 55.4269 130.333 55.664C130.74 55.8975 131.212 56.0146 131.75 56.0146C132.1 56.0146 132.417 55.9655 132.7 55.8679C132.985 55.7659 133.232 55.6156 133.439 55.416C133.646 55.2122 133.806 54.9599 133.919 54.6592L135.207 55.0206C135.072 55.4572 134.844 55.8411 134.524 56.1722C134.203 56.5004 133.808 56.7563 133.337 56.9407C132.867 57.1214 132.338 57.2118 131.75 57.2118ZM142.201 53.4844V48.3561H143.534V57.031H142.201V55.5628H142.111C141.907 56.003 141.591 56.3775 141.161 56.6862C140.733 56.9913 140.19 57.1438 139.535 57.1438C138.993 57.1438 138.511 57.0252 138.089 56.7881C137.667 56.5474 137.336 56.1859 137.095 55.7038C136.854 55.218 136.733 54.6064 136.733 53.8683V48.3561H138.067V53.7779C138.067 54.4105 138.244 54.9151 138.598 55.2917C138.955 55.6683 139.411 55.8563 139.964 55.8563C140.296 55.8563 140.633 55.7717 140.976 55.6018C141.322 55.4327 141.612 55.1731 141.845 54.8225C142.082 54.4726 142.201 54.0266 142.201 53.4844ZM145.339 57.031V48.3561H146.627V49.666H146.717C146.875 49.2373 147.161 48.8889 147.575 48.6214C147.989 48.3539 148.456 48.2202 148.976 48.2202C149.074 48.2202 149.196 48.2223 149.343 48.226C149.49 48.2303 149.601 48.2354 149.677 48.2433V49.5988C149.631 49.5872 149.528 49.5706 149.366 49.5474C149.207 49.5214 149.04 49.5084 148.863 49.5084C148.441 49.5084 148.064 49.5966 147.733 49.7737C147.406 49.9472 147.146 50.1879 146.954 50.4966C146.766 50.8017 146.671 51.1501 146.671 51.5412V57.031H145.339ZM156.765 50.2985L155.568 50.6376C155.492 50.4381 155.381 50.2443 155.234 50.0564C155.091 49.8641 154.895 49.7058 154.647 49.5814C154.399 49.4571 154.08 49.3949 153.692 49.3949C153.162 49.3949 152.719 49.5178 152.365 49.7621C152.015 50.0036 151.84 50.3101 151.84 50.6831C151.84 51.0142 151.96 51.2759 152.202 51.4682C152.442 51.6598 152.819 51.8203 153.331 51.9482L154.618 52.2641C155.394 52.4528 155.972 52.7405 156.353 53.1287C156.733 53.5126 156.923 54.0078 156.923 54.6136C156.923 55.111 156.78 55.5548 156.494 55.9467C156.212 56.3385 155.816 56.6472 155.308 56.8727C154.799 57.099 154.208 57.2118 153.534 57.2118C152.649 57.2118 151.917 57.0195 151.337 56.6356C150.757 56.2517 150.39 55.6907 150.236 54.9527L151.501 54.636C151.622 55.103 151.85 55.4536 152.184 55.6871C152.523 55.9206 152.966 56.037 153.512 56.037C154.133 56.037 154.626 55.9055 154.991 55.6416C155.36 55.3741 155.545 55.0546 155.545 54.6816C155.545 54.3801 155.44 54.1278 155.228 53.9247C155.018 53.7179 154.694 53.5632 154.257 53.4613L152.811 53.123C152.017 52.9343 151.433 52.643 151.061 52.2475C150.691 51.8485 150.507 51.3497 150.507 50.7504C150.507 50.261 150.644 49.8279 150.919 49.452C151.198 49.0754 151.576 48.7797 152.055 48.565C152.536 48.3503 153.082 48.2433 153.692 48.2433C154.551 48.2433 155.225 48.4313 155.714 48.8079C156.207 49.1845 156.558 49.6812 156.765 50.2985Z" fill="var(--fill-0, white)"/>
</g>
<defs>
<linearGradient id="paint0_linear_194_96" x1="23.605" y1="5.34058e-05" x2="23.605" y2="58.1045" gradientUnits="userSpaceOnUse">
<stop offset="0.240385" stop-color="#C46A2D"/>
<stop offset="1" stop-color="#FFE5D9"/>
</linearGradient>
</defs>
</svg>
