<svg preserveAspectRatio="none" width="100%" height="100%" overflow="visible" style="display: block;" viewBox="0 0 24 24" fill="none" xmlns="http://www.w3.org/2000/svg">
<g id="SVG">
<path id="Vector" d="M3.5 8.5L11 3.2C11.304 3.02446 11.6489 2.93205 12 2.93205C12.3511 2.93205 12.696 3.02446 13 3.2L20.5 8.5C20.7484 8.68629 20.95 8.92786 21.0889 9.20557C21.2277 9.48328 21.3 9.78951 21.3 10.1V20C21.3 20.2652 21.1946 20.5196 21.0071 20.7071C20.8196 20.8946 20.5652 21 20.3 21H4C3.73478 21 3.48043 20.8946 3.29289 20.7071C3.10536 20.5196 3 20.2652 3 20V10.1C2.96261 9.81301 2.98796 9.52133 3.07428 9.24509C3.16061 8.96885 3.30586 8.71464 3.5 8.5Z" stroke="var(--stroke-0, #C46A2D)" stroke-width="1.8" stroke-linecap="round" stroke-linejoin="round"/>
<path id="Vector_2" d="M14.5 11.5C14.1815 11.0491 13.7278 10.7113 13.2045 10.5354C12.6812 10.3596 12.1156 10.3549 11.5894 10.5219C11.0633 10.689 10.604 11.0192 10.278 11.4647C9.95203 11.9103 9.77632 12.448 9.77632 13C9.77632 13.552 9.95203 14.0897 10.278 14.5353C10.604 14.9808 11.0633 15.311 11.5894 15.4781C12.1156 15.6451 12.6812 15.6404 13.2045 15.4646C13.7278 15.2887 14.1815 14.9509 14.5 14.5M9.5 12.5H13.5M9.5 14H13.5" stroke="var(--stroke-0, #C46A2D)" stroke-width="1.8" stroke-linecap="round" stroke-linejoin="round"/>
</g>
</svg>
